
<svg xmlns="http://www.w3.org/2000/svg">
    <symbol id="triangleIco" viewBox="0 0 10 20">
        <g id="Page-1" stroke="none" stroke-width="1" fill="none" fill-rule="evenodd">
            <g id="ui-kit" transform="translate(-380.000000, -2258.000000)" fill="#00489D" fill-rule="nonzero">
                <polygon id="Triangle" transform="translate(385.000000, 2268.000000) rotate(90.000000) translate(-385.000000, -2268.000000) " points="385 2263 395 2273 375 2273"/>
            </g>
        </g>
    </symbol>
    <symbol id="burgerIco" viewBox="0 0 32 20">
        <g id="MGINE" stroke="none" stroke-width="1" fill="none" fill-rule="evenodd">
            <g id="Mobile-Main" transform="translate(-18.000000, -20.000000)" fill-rule="nonzero">
                <g id="Group-Copy-2" transform="translate(16.000000, 12.000000)">
                    <rect id="Rectangle" x="0" y="0" width="36" height="36"/>
                    <path d="M4,8 L32,8 C33.1045695,8 34,8.8954305 34,10 C34,11.1045695 33.1045695,12 32,12 L4,12 C2.8954305,12 2,11.1045695 2,10 C2,8.8954305 2.8954305,8 4,8 Z M4,16 L32,16 C33.1045695,16 34,16.8954305 34,18 C34,19.1045695 33.1045695,20 32,20 L4,20 C2.8954305,20 2,19.1045695 2,18 C2,16.8954305 2.8954305,16 4,16 Z M4,24 L32,24 C33.1045695,24 34,24.8954305 34,26 C34,27.1045695 33.1045695,28 32,28 L4,28 C2.8954305,28 2,27.1045695 2,26 C2,24.8954305 2.8954305,24 4,24 Z" id="Combined-Shape" fill="#2463A0"/>
                </g>
            </g>
        </g>
    </symbol>
    <symbol id="closeIco" viewBox="0 0 21 21">
        <g id="MGINE" stroke="none" stroke-width="1" fill="none" fill-rule="evenodd">
            <g id="Mobile-menu" transform="translate(-276.000000, -20.000000)">
                <g id="Group-Copy-2" transform="translate(268.000000, 12.000000)">
                    <rect id="Rectangle" fill-rule="nonzero" x="0" y="0" width="36" height="36"/>
                    <path d="M21.3323975,18.5 L28.4133913,25.5809938 C29.1955362,26.3631387 29.1955362,27.6312463 28.4133913,28.4133913 C27.6312463,29.1955362 26.3631387,29.1955362 25.5809938,28.4133913 L18.5,21.3323975 L11.4190062,28.4133913 C10.6368613,29.1955362 9.3687537,29.1955362 8.58660873,28.4133913 C7.80446376,27.6312463 7.80446376,26.3631387 8.58660873,25.5809938 L15.6676025,18.5 L8.58660873,11.4190062 C7.80446376,10.6368613 7.80446376,9.3687537 8.58660873,8.58660873 C9.3687537,7.80446376 10.6368613,7.80446376 11.4190062,8.58660873 L18.5,15.6676025 L25.5809938,8.58660873 C26.3631387,7.80446376 27.6312463,7.80446376 28.4133913,8.58660873 C29.1955362,9.3687537 29.1955362,10.6368613 28.4133913,11.4190062 L21.3323975,18.5 Z" id="Path" fill="#2463A0"/>
                </g>
            </g>
        </g>
    </symbol>
</svg>