<svg width="350" height="600" viewBox="0 0 350 600" xmlns="http://www.w3.org/2000/svg" xmlns:xlink="http://www.w3.org/1999/xlink"><title>Vector</title><desc>Created using Figma</desc><g opacity=".05" transform="translate(-448 -850)"><mask id="l"><use xlink:href="#a" fill="#fff" transform="translate(-1299 22)"/><use xlink:href="#b" fill="#fff" transform="translate(-1299 22)"/><use xlink:href="#c" fill="#fff" transform="translate(-1299 22)"/><use xlink:href="#d" fill="#fff" transform="translate(-1299 22)"/><use xlink:href="#e" fill="#fff" transform="translate(-1299 22)"/><use xlink:href="#f" fill="#fff" transform="translate(-1299 22)"/><use xlink:href="#g" fill="#fff" transform="translate(-1299 22)"/><use xlink:href="#h" fill="#fff" transform="translate(-1299 22)"/><use xlink:href="#i" fill="#fff" transform="translate(-1299 22)"/><use xlink:href="#j" fill="#fff" transform="translate(-1299 22)"/><use xlink:href="#k" fill="#fff" transform="translate(-1299 22)"/></mask><g mask="url(#l)"><use xlink:href="#m" transform="translate(-1299 22)" fill="#00489D"/></g></g><defs><path id="a" fill-rule="evenodd" d="M1440 1131l456-70v350l-456-50v-230z"/><path id="b" fill-rule="evenodd" d="M1460 1111l456-70v350l-456-50v-230z"/><path id="c" fill-rule="evenodd" d="M1480 1091l456-70v350l-456-50v-230z"/><path id="d" fill-rule="evenodd" d="M1500 1071l456-70v350l-456-50v-230z"/><path id="e" fill-rule="evenodd" d="M1520 1051l456-70v350l-456-50v-230z"/><path id="f" fill-rule="evenodd" d="M1540 1031l456-70v350l-456-50v-230z"/><path id="g" fill-rule="evenodd" d="M1560 1011l456-70v350l-456-50v-230z"/><path id="h" fill-rule="evenodd" d="M1580 991l456-70v350l-456-50V991z"/><path id="i" fill-rule="evenodd" d="M1600 971l456-70v350l-456-50V971z"/><path id="j" fill-rule="evenodd" d="M1620 951l456-70v350l-456-50V951z"/><path id="k" fill-rule="evenodd" d="M1640 931l456-70v350l-456-50V931z"/><path id="m" d="M0 2571l-.152-.99-.848.13v.86h1zm456-70h1v-1.17l-1.152.18.152.99zm0 350l-.109.99 1.109.13V2851h-1zM0 2801h-1v.9l.891.09L0 2801zm20-250l-.152-.99-.848.13v.86h1zm456-70h1v-1.17l-1.152.18.152.99zm0 350l-.109.99 1.109.13V2831h-1zm-456-50h-1v.9l.891.09.109-.99zm20-250l-.152-.99-.848.13v.86h1zm456-70h1v-1.17l-1.152.18.152.99zm0 350l-.109.99 1.109.13V2811h-1zm-456-50h-1v.9l.891.09.109-.99zm20-250l-.152-.99-.848.13v.86h1zm456-70h1v-1.17l-1.152.18.152.99zm0 350l-.109.99 1.109.13V2791h-1zm-456-50h-1v.9l.891.09.109-.99zm20-250l-.152-.99-.848.13v.86h1zm456-70h1v-1.17l-1.152.18.152.99zm0 350l-.109.99 1.109.13V2771h-1zm-456-50h-1v.9l.891.09.109-.99zm20-250l-.152-.99-.848.13v.86h1zm456-70h1v-1.17l-1.152.18.152.99zm0 350l-.109.99 1.109.13V2751h-1zm-456-50h-1v.9l.891.09.109-.99zm20-250l-.152-.99-.848.13v.86h1zm456-70h1v-1.17l-1.152.18.152.99zm0 350l-.109.99 1.109.13V2731h-1zm-456-50h-1v.9l.891.09.109-.99zm20-250l-.152-.99-.848.13v.86h1zm456-70h1v-1.17l-1.152.18.152.99zm0 350l-.109.99 1.109.13V2711h-1zm-456-50h-1v.9l.891.09.109-.99zm20-250l-.152-.99-.848.13v.86h1zm456-70h1v-1.17l-1.152.18.152.99zm0 350l-.109.99 1.109.13V2691h-1zm-456-50h-1v.9l.891.09.109-.99zm20-250l-.152-.99-.848.13v.86h1zm456-70h1v-1.17l-1.152.18.152.99zm0 350l-.109.99 1.109.13V2671h-1zm-456-50h-1v.9l.891.09.109-.99zm20-250l-.152-.99-.848.13v.86h1zm456-70h1v-1.17l-1.152.18.152.99zm0 350l-.109.99 1.109.13V2651h-1zm-456-50h-1v.9l.891.09.109-.99zm20-250l-.152-.99-.848.13v.86h1zm456-70h1v-1.17l-1.152.18.152.99zm0 350l-.109.99 1.109.13V2631h-1zm-456-50h-1v.9l.891.09.109-.99zm20-250l-.152-.99-.848.13v.86h1zm456-70h1v-1.17l-1.152.18.152.99zm0 350l-.109.99 1.109.13V2611h-1zm-456-50h-1v.9l.891.09.109-.99zm20-250l-.152-.99-.848.13v.86h1zm456-70h1v-1.17l-1.152.18.152.99zm0 350l-.109.99 1.109.13V2591h-1zm-456-50h-1v.9l.891.09.109-.99zm20-250l-.152-.99-.848.13v.86h1zm456-70h1v-1.17l-1.152.18.152.99zm0 350l-.109.99 1.109.13V2571h-1zm-456-50h-1v.9l.891.09.109-.99zm20-250l-.152-.99-.848.13v.86h1zm456-70h1v-1.17l-1.152.18.152.99zm0 350l-.109.99 1.109.13V2551h-1zm-456-50h-1v.9l.891.09.109-.99zm20-250l-.152-.99-.848.13v.86h1zm456-70h1v-1.17l-1.152.18.152.99zm0 350l-.109.99 1.109.13V2531h-1zm-456-50h-1v.9l.891.09.109-.99zm20-250l-.152-.99-.848.13v.86h1zm456-70h1v-1.17l-1.152.18.152.99zm0 350l-.109.99 1.109.13V2511h-1zm-456-50h-1v.9l.891.09.109-.99zm20-250l-.152-.99-.848.13v.86h1zm456-70h1v-1.17l-1.152.18.152.99zm0 350l-.109.99 1.109.13V2491h-1zm-456-50h-1v.9l.891.09.109-.99zm20-250l-.152-.99-.848.13v.86h1zm456-70h1v-1.17l-1.152.18.152.99zm0 350l-.109.99 1.109.13V2471h-1zm-456-50h-1v.9l.891.09.109-.99zm20-250l-.152-.99-.848.13v.86h1zm456-70h1v-1.17l-1.152.18.152.99zm0 350l-.109.99 1.109.13V2451h-1zm-456-50h-1v.9l.891.09.109-.99zm20-250l-.152-.99-.848.13v.86h1zm456-70h1v-1.17l-1.152.18.152.99zm0 350l-.109.99 1.109.13V2431h-1zm-456-50h-1v.9l.891.09.109-.99zm20-250l-.152-.99-.848.13v.86h1zm456-70h1v-1.17l-1.152.18.152.99zm0 350l-.109.99 1.109.13V2411h-1zm-456-50h-1v.9l.891.09.109-.99zm20-250l-.152-.99-.848.13v.86h1zm456-70h1v-1.17l-1.152.18.152.99zm0 350l-.109.99 1.109.13V2391h-1zm-456-50h-1v.9l.891.09.109-.99zm20-250l-.152-.99-.848.13v.86h1zm456-70h1v-1.17l-1.152.18.152.99zm0 350l-.109.99 1.109.13V2371h-1zm-456-50h-1v.9l.891.09.109-.99zm20-250l-.152-.99-.848.13v.86h1zm456-70h1v-1.17l-1.152.18.152.99zm0 350l-.109.99 1.109.13V2351h-1zm-456-50h-1v.9l.891.09.109-.99zm20-250l-.152-.99-.848.13v.86h1zm456-70h1v-1.17l-1.152.18.152.99zm0 350l-.109.99 1.109.13V2331h-1zm-456-50h-1v.9l.891.09.109-.99zm20-250l-.152-.99-.848.13v.86h1zm456-70h1v-1.17l-1.152.18.152.99zm0 350l-.109.99 1.109.13V2311h-1zm-456-50h-1v.9l.891.09.109-.99zm20-250l-.152-.99-.848.13v.86h1zm456-70h1v-1.17l-1.15.18.15.99zm0 350l-.11.99 1.11.13V2291h-1zm-456-50h-1v.9l.891.09.109-.99zm20-250l-.152-.99-.848.13v.86h1zm456-70h1v-1.17l-1.15.18.15.99zm0 350l-.11.99 1.11.13V2271h-1zm-456-50h-1v.9l.891.09.109-.99zm20-250l-.152-.99-.848.13v.86h1zm456-70h1v-1.17l-1.15.18.15.99zm0 350l-.11.99 1.11.13V2251h-1zm-456-50h-1v.9l.891.09.109-.99zm20-250l-.152-.99-.848.13v.86h1zm456-70h1v-1.17l-1.15.18.15.99zm0 350l-.11.99 1.11.13V2231h-1zm-456-50h-1v.9l.891.09.109-.99zm20-250l-.152-.99-.848.13v.86h1zm456-70h1v-1.17l-1.15.18.15.99zm0 350l-.11.99 1.11.13V2211h-1zm-456-50h-1v.9l.891.09.109-.99zm20-250l-.152-.99-.848.13v.86h1zm456-70h1v-1.17l-1.15.18.15.99zm0 350l-.11.99 1.11.13V2191h-1zm-456-50h-1v.9l.891.09.109-.99zm20-250l-.152-.99-.848.13v.86h1zm456-70h1v-1.17l-1.15.18.15.99zm0 350l-.11.99 1.11.13V2171h-1zm-456-50h-1v.9l.891.09.109-.99zm20-250l-.152-.99-.848.13v.86h1zm456-70h1v-1.17l-1.15.18.15.99zm0 350l-.11.99 1.11.13V2151h-1zm-456-50h-1v.9l.891.09.109-.99zm20-250l-.152-.99-.848.13v.86h1zm456-70h1v-1.17l-1.15.18.15.99zm0 350l-.11.99 1.11.13V2131h-1zm-456-50h-1v.9l.891.09.109-.99zm20-250l-.152-.99-.848.13v.86h1zm456-70h1v-1.17l-1.15.18.15.99zm0 350l-.11.99 1.11.13V2111h-1zm-456-50h-1v.9l.891.09.109-.99zm20-250l-.152-.99-.848.13v.86h1zm456-70h1v-1.17l-1.15.18.15.99zm0 350l-.11.99 1.11.13V2091h-1zm-456-50h-1v.9l.891.09.109-.99zm20-250l-.152-.99-.848.13v.86h1zm456-70h1v-1.17l-1.15.18.15.99zm0 350l-.11.99 1.11.13V2071h-1zm-456-50h-1v.9l.891.09.109-.99zm20-250l-.152-.99-.848.13v.86h1zm456-70h1v-1.17l-1.15.18.15.99zm0 350l-.11.99 1.11.13V2051h-1zm-456-50h-1v.9l.891.09.109-.99zm20-250l-.152-.99-.848.13v.86h1zm456-70h1v-1.17l-1.15.18.15.99zm0 350l-.11.99 1.11.13V2031h-1zm-456-50h-1v.9l.891.09.109-.99zm20-250l-.152-.99-.848.13v.86h1zm456-70h1v-1.17l-1.15.18.15.99zm0 350l-.11.99 1.11.13V2011h-1zm-456-50h-1v.9l.891.09.109-.99zm20-250l-.152-.99-.848.13v.86h1zm456-70h1v-1.17l-1.15.18.15.99zm0 350l-.11.99 1.11.13V1991h-1zm-456-50h-1v.9l.891.09.109-.99zm20-250l-.152-.99-.848.13v.86h1zm456-70h1v-1.17l-1.15.18.15.99zm0 350l-.11.99 1.11.13V1971h-1zm-456-50h-1v.9l.891.09.109-.99zm20-250l-.152-.99-.848.13v.86h1zm456-70h1v-1.17l-1.15.18.15.99zm0 350l-.11.99 1.11.13V1951h-1zm-456-50h-1v.9l.891.09.109-.99zm20-250l-.152-.99-.848.13v.86h1zm456-70h1v-1.17l-1.15.18.15.99zm0 350l-.11.99 1.11.13V1931h-1zm-456-50h-1v.9l.891.09.109-.99zm20-250l-.152-.99-.848.13v.86h1zm456-70h1v-1.17l-1.15.18.15.99zm0 350l-.11.99 1.11.13V1911h-1zm-456-50h-1v.9l.891.09.109-.99zm20-250l-.152-.99-.848.13v.86h1zm456-70h1v-1.17l-1.15.18.15.99zm0 350l-.11.99 1.11.13V1891h-1zm-456-50h-1v.9l.891.09.109-.99zm20-250l-.152-.99-.848.13v.86h1zm456-70h1v-1.17l-1.15.18.15.99zm0 350l-.11.99 1.11.13V1871h-1zm-456-50h-1v.9l.891.09.109-.99zm20-250l-.152-.99-.848.13v.86h1zm456-70h1v-1.17l-1.15.18.15.99zm0 350l-.11.99 1.11.13V1851h-1zm-456-50h-1v.9l.891.09.109-.99zm20-250l-.15-.99-.85.13v.86h1zm456-70h1v-1.17l-1.15.18.15.99zm0 350l-.11.99 1.11.13V1831h-1zm-456-50h-1v.9l.89.09.11-.99zm20-250l-.15-.99-.85.13v.86h1zm456-70h1v-1.17l-1.15.18.15.99zm0 350l-.11.99 1.11.13V1811h-1zm-456-50h-1v.9l.89.09.11-.99zm20-250l-.15-.99-.85.13v.86h1zm456-70h1v-1.17l-1.15.18.15.99zm0 350l-.11.99 1.11.13V1791h-1zm-456-50h-1v.9l.89.09.11-.99zm20-250l-.15-.99-.85.13v.86h1zm456-70h1v-1.17l-1.15.18.15.99zm0 350l-.11.99 1.11.13V1771h-1zm-456-50h-1v.9l.89.09.11-.99zm20-250l-.15-.99-.85.13v.86h1zm456-70h1v-1.17l-1.15.18.15.99zm0 350l-.11.99 1.11.13V1751h-1zm-456-50h-1v.9l.89.09.11-.99zm20-250l-.15-.99-.85.13v.86h1zm456-70h1v-1.17l-1.15.18.15.99zm0 350l-.11.99 1.11.13V1731h-1zm-456-50h-1v.9l.89.09.11-.99zm20-250l-.15-.99-.85.13v.86h1zm456-70h1v-1.17l-1.15.18.15.99zm0 350l-.11.99 1.11.13V1711h-1zm-456-50h-1v.9l.89.09.11-.99zm20-250l-.15-.99-.85.13v.86h1zm456-70h1v-1.17l-1.15.18.15.99zm0 350l-.11.99 1.11.13V1691h-1zm-456-50h-1v.9l.89.09.11-.99zm20-250l-.15-.99-.85.13v.86h1zm456-70h1v-1.17l-1.15.18.15.99zm0 350l-.11.99 1.11.13V1671h-1zm-456-50h-1v.9l.89.09.11-.99zm20-250l-.15-.99-.85.13v.86h1zm456-70h1v-1.17l-1.15.18.15.99zm0 350l-.11.99 1.11.13V1651h-1zm-456-50h-1v.9l.89.09.11-.99zm20-250l-.15-.99-.85.13v.86h1zm456-70h1v-1.17l-1.15.18.15.99zm0 350l-.11.99 1.11.13V1631h-1zm-456-50h-1v.9l.89.09.11-.99zm20-250l-.15-.99-.85.13v.86h1zm456-70h1v-1.17l-1.15.18.15.99zm0 350l-.11.99 1.11.13V1611h-1zm-456-50h-1v.9l.89.09.11-.99zm20-250l-.15-.99-.85.13v.86h1zm456-70h1v-1.17l-1.15.18.15.99zm0 350l-.11.99 1.11.13V1591h-1zm-456-50h-1v.9l.89.09.11-.99zm20-250l-.15-.99-.85.13v.86h1zm456-70h1v-1.17l-1.15.18.15.99zm0 350l-.11.99 1.11.13V1571h-1zm-456-50h-1v.9l.89.09.11-.99zm20-250l-.15-.99-.85.13v.86h1zm456-70h1v-1.17l-1.15.18.15.99zm0 350l-.11.99 1.11.13V1551h-1zm-456-50h-1v.9l.89.09.11-.99zm20-250l-.15-.99-.85.13v.86h1zm456-70h1v-1.17l-1.15.18.15.99zm0 350l-.11.99 1.11.13V1531h-1zm-456-50h-1v.9l.89.09.11-.99zm20-250l-.15-.99-.85.13v.86h1zm456-70h1v-1.17l-1.15.18.15.99zm0 350l-.11.99 1.11.13V1511h-1zm-456-50h-1v.9l.89.09.11-.99zm20-250l-.15-.99-.85.13v.86h1zm456-70h1v-1.17l-1.15.18.15.99zm0 350l-.11.99 1.11.13V1491h-1zm-456-50h-1v.9l.89.09.11-.99zm20-250l-.15-.99-.85.13v.86h1zm456-70h1v-1.17l-1.15.18.15.99zm0 350l-.11.99 1.11.13V1471h-1zm-456-50h-1v.9l.89.09.11-.99zm20-250l-.15-.99-.85.13v.86h1zm456-70h1v-1.17l-1.15.18.15.99zm0 350l-.11.99 1.11.13V1451h-1zm-456-50h-1v.9l.89.09.11-.99zm20-250l-.15-.99-.85.13v.86h1zm456-70h1v-1.17l-1.15.18.15.99zm0 350l-.11.99 1.11.13V1431h-1zm-456-50h-1v.9l.89.09.11-.99zm20-250l-.15-.99-.85.13v.86h1zm456-70h1v-1.17l-1.15.18.15.99zm0 350l-.11.99 1.11.13V1411h-1zm-456-50h-1v.9l.89.09.11-.99zm20-250l-.15-.99-.85.13v.86h1zm456-70h1v-1.17l-1.15.18.15.99zm0 350l-.11.99 1.11.13V1391h-1zm-456-50h-1v.9l.89.09.11-.99zm20-250l-.15-.99-.85.13v.86h1zm456-70h1v-1.17l-1.15.18.15.99zm0 350l-.11.99 1.11.13V1371h-1zm-456-50h-1v.9l.89.09.11-.99zm20-250l-.15-.99-.85.13v.86h1zm456-70h1v-1.165l-1.15.175.15.99zm0 350l-.11.99 1.11.13V1351h-1zm-456-50h-1v.9l.89.09.11-.99zm20-250l-.15-.99-.85.13v.86h1zm456-70h1v-1.165l-1.15.177.15.988zm0 350l-.11.99 1.11.13V1331h-1zm-456-50h-1v.9l.89.09.11-.99zm20-250l-.15-.99-.85.13v.86h1zm456-70h1v-1.165l-1.15.177.15.988zm0 350l-.11.99 1.11.13V1311h-1zm-456-50h-1v.9l.89.09.11-.99zm20-250l-.15-.99-.85.13v.86h1zm456-70h1v-1.165l-1.15.177.15.988zm0 350l-.11.99 1.11.13V1291h-1zm-456-50h-1v.9l.89.09.11-.99zm20-250l-.15-.988-.85.13V991h1zm456-70h1v-1.165l-1.15.177.15.988zm0 350l-.11.99 1.11.13V1271h-1zm-456-50h-1v.9l.89.09.11-.99zm20-250l-.15-.988-.85.13V971h1zm456-70h1v-1.165l-1.15.177.15.988zm0 350l-.11.99 1.11.13V1251h-1zm-456-50h-1v.9l.89.09.11-.99zm20-250l-.15-.988-.85.13V951h1zm456-70h1v-1.165l-1.15.177.15.988zm0 350l-.11.99 1.11.13V1231h-1zm-456-50h-1v.9l.89.09.11-.99zm20-250l-.15-.988-.85.13V931h1zm456-70h1v-1.165l-1.15.177.15.988zm0 350l-.11.99 1.11.13V1211h-1zm-456-50h-1v.9l.89.09.11-.99zm863-771l-.15-.988-.85.13V390h1zm456-70h1v-1.165l-1.15.177.15.988zm0 350l-.11.994 1.11.122V670h-1zm-456-50h-1v.896l.89.098.11-.994zm20-250l-.15-.988-.85.13V370h1zm456-70h1v-1.165l-1.15.177.15.988zm0 350l-.11.994 1.11.122V650h-1zm-456-50h-1v.896l.89.098.11-.994zm20-250l-.15-.988-.85.13V350h1zm456-70h1v-1.165l-1.15.177.15.988zm0 350l-.11.994 1.11.122V630h-1zm-456-50h-1v.896l.89.098.11-.994zm20-250l-.15-.988-.85.13V330h1zm456-70h1v-1.165l-1.15.177.15.988zm0 350l-.11.994 1.11.122V610h-1zm-456-50h-1v.896l.89.098.11-.994zm20-250l-.15-.988-.85.13V310h1zm456-70h1v-1.165l-1.15.177.15.988zm0 350l-.11.994 1.11.122V590h-1zm-456-50h-1v.896l.89.098.11-.994zm20-250l-.15-.988-.85.13V290h1zm456-70h1v-1.165l-1.15.177.15.988zm0 350l-.11.994 1.11.122V570h-1zm-456-50h-1v.896l.89.098.11-.994zm20-250l-.15-.988-.85.13V270h1zm456-70h1v-1.165l-1.15.177.15.988zm0 350l-.11.994 1.11.122V550h-1zm-456-50h-1v.896l.89.098.11-.994zm20-250l-.15-.988-.85.13V250h1zm456-70h1v-1.165l-1.15.177.15.988zm0 350l-.11.994 1.11.122V530h-1zm-456-50h-1v.896l.89.098.11-.994zm20-250l-.15-.988-.85.13V230h1zm456-70h1v-1.165l-1.15.177.15.988zm0 350l-.11.994 1.11.122V510h-1zm-456-50h-1v.896l.89.098.11-.994zm20-250l-.15-.988-.85.13V210h1zm456-70h1v-1.165l-1.15.177.15.988zm0 350l-.11.994 1.11.122V490h-1zm-456-50h-1v.896l.89.098.11-.994zm20-250l-.15-.988-.85.13V190h1zm456-70h1v-1.165l-1.15.177.15.988zm0 350l-.11.994 1.11.122V470h-1zm-456-50h-1v.896l.89.098.11-.994zm20-250l-.15-.988-.85.13V170h1zm456-70h1v-1.165l-1.15.177.15.988zm0 350l-.11.994 1.11.122V450h-1zm-456-50h-1v.896l.89.098.11-.994zm20-250l-.15-.988-.85.13V150h1zm456-70h1v-1.165l-1.15.177.15.988zm0 350l-.11.994 1.11.122V430h-1zm-456-50h-1v.896l.89.098.11-.994zm20-250l-.15-.988-.85.13V130h1zm456-70h1v-1.165l-1.15.177.15.988zm0 350l-.11.994 1.11.122V410h-1zm-456-50h-1v.896l.89.098.11-.994zm20-250l-.15-.988-.85.13V110h1zm456-70h1v-1.165l-1.15.177.15.988zm0 350l-.11.994 1.11.122V390h-1zm-456-50h-1v.896l.89.098.11-.994zm20-250l-.15-.988-.85.13V90h1zm456-70h1v-1.165l-1.15.177.15.988zm0 350l-.11.994 1.11.122V370h-1zm-456-50h-1v.896l.89.098.11-.994zm20-250l-.15-.988-.85.13V70h1zm456-70h1v-1.165l-1.15.177.15.988zm0 350l-.11.994 1.11.122V350h-1zm-456-50h-1v.896l.89.098.11-.994zM.152 2571.99l456-70-.304-1.98-456 70 .304 1.98zM455 2501v350h2v-350h-2zm1.109 349.01l-456-50-.218 1.98 456 50 .218-1.98zM1 2801v-230h-2v230h2zm19.152-249.01l456-70-.304-1.98-456 70 .304 1.98zM475 2481v350h2v-350h-2zm1.109 349.01l-456-50-.218 1.98 456 50 .218-1.98zM21 2781v-230h-2v230h2zm19.152-249.01l456-70-.304-1.98-456 70 .304 1.98zM495 2461v350h2v-350h-2zm1.109 349.01l-456-50-.218 1.98 456 50 .218-1.98zM41 2761v-230h-2v230h2zm19.152-249.01l456-70-.304-1.98-456 70 .304 1.98zM515 2441v350h2v-350h-2zm1.109 349.01l-456-50-.218 1.98 456 50 .218-1.98zM61 2741v-230h-2v230h2zm19.152-249.01l456-70-.304-1.98-456 70 .304 1.98zM535 2421v350h2v-350h-2zm1.109 349.01l-456-50-.218 1.98 456 50 .218-1.98zM81 2721v-230h-2v230h2zm19.152-249.01l456-70-.304-1.98-456 70 .304 1.98zM555 2401v350h2v-350h-2zm1.109 349.01l-456-50-.218 1.98 456 50 .218-1.98zM101 2701v-230h-2v230h2zm19.152-249.01l456-70-.304-1.98-456 70 .304 1.98zM575 2381v350h2v-350h-2zm1.109 349.01l-456-50-.218 1.98 456 50 .218-1.98zM121 2681v-230h-2v230h2zm19.152-249.01l456-70-.304-1.98-456 70 .304 1.98zM595 2361v350h2v-350h-2zm1.109 349.01l-456-50-.218 1.98 456 50 .218-1.98zM141 2661v-230h-2v230h2zm19.152-249.01l456-70-.304-1.98-456 70 .304 1.98zM615 2341v350h2v-350h-2zm1.109 349.01l-456-50-.218 1.98 456 50 .218-1.98zM161 2641v-230h-2v230h2zm19.152-249.01l456-70-.304-1.98-456 70 .304 1.98zM635 2321v350h2v-350h-2zm1.109 349.01l-456-50-.218 1.98 456 50 .218-1.98zM181 2621v-230h-2v230h2zm19.152-249.01l456-70-.304-1.98-456 70 .304 1.98zM655 2301v350h2v-350h-2zm1.109 349.01l-456-50-.218 1.98 456 50 .218-1.98zM201 2601v-230h-2v230h2zm19.152-249.01l456-70-.304-1.98-456 70 .304 1.98zM675 2281v350h2v-350h-2zm1.109 349.01l-456-50-.218 1.98 456 50 .218-1.98zM221 2581v-230h-2v230h2zm19.152-249.01l456-70-.304-1.98-456 70 .304 1.98zM695 2261v350h2v-350h-2zm1.109 349.01l-456-50-.218 1.98 456 50 .218-1.98zM241 2561v-230h-2v230h2zm19.152-249.01l456-70-.304-1.98-456 70 .304 1.98zM715 2241v350h2v-350h-2zm1.109 349.01l-456-50-.218 1.98 456 50 .218-1.98zM261 2541v-230h-2v230h2zm19.152-249.01l456-70-.304-1.98-456 70 .304 1.98zM735 2221v350h2v-350h-2zm1.109 349.01l-456-50-.218 1.98 456 50 .218-1.98zM281 2521v-230h-2v230h2zm19.152-249.01l456-70-.304-1.98-456 70 .304 1.98zM755 2201v350h2v-350h-2zm1.109 349.01l-456-50-.218 1.98 456 50 .218-1.98zM301 2501v-230h-2v230h2zm19.152-249.01l456-70-.304-1.98-456 70 .304 1.98zM775 2181v350h2v-350h-2zm1.109 349.01l-456-50-.218 1.98 456 50 .218-1.98zM321 2481v-230h-2v230h2zm19.152-249.01l456-70-.304-1.98-456 70 .304 1.98zM795 2161v350h2v-350h-2zm1.109 349.01l-456-50-.218 1.98 456 50 .218-1.98zM341 2461v-230h-2v230h2zm19.152-249.01l456-70-.304-1.98-456 70 .304 1.98zM815 2141v350h2v-350h-2zm1.109 349.01l-456-50-.218 1.98 456 50 .218-1.98zM361 2441v-230h-2v230h2zm19.152-249.01l456-70-.304-1.98-456 70 .304 1.98zM835 2121v350h2v-350h-2zm1.109 349.01l-456-50-.218 1.98 456 50 .218-1.98zM381 2421v-230h-2v230h2zm19.152-249.01l456-70-.304-1.98-456 70 .304 1.98zM855 2101v350h2v-350h-2zm1.109 349.01l-456-50-.218 1.98 456 50 .218-1.98zM401 2401v-230h-2v230h2zm19.152-249.01l456-70-.304-1.98-456 70 .304 1.98zM875 2081v350h2v-350h-2zm1.109 349.01l-456-50-.218 1.98 456 50 .218-1.98zM421 2381v-230h-2v230h2zm19.152-249.01l456-70-.304-1.98-456 70 .304 1.98zM895 2061v350h2v-350h-2zm1.109 349.01l-456-50-.218 1.98 456 50 .218-1.98zM441 2361v-230h-2v230h2zm19.152-249.01l456-70-.304-1.98-456 70 .304 1.98zM915 2041v350h2v-350h-2zm1.109 349.01l-456-50-.218 1.98 456 50 .218-1.98zM461 2341v-230h-2v230h2zm19.152-249.01l456-70-.304-1.98-456 70 .304 1.98zM935 2021v350h2v-350h-2zm1.109 349.01l-456-50-.218 1.98 456 50 .218-1.98zM481 2321v-230h-2v230h2zm19.152-249.01l456-70-.304-1.98-456 70 .304 1.98zM955 2001v350h2v-350h-2zm1.109 349.01l-456-50-.218 1.98 456 50 .218-1.98zM501 2301v-230h-2v230h2zm19.152-249.01l456-70-.304-1.98-456 70 .304 1.98zM975 1981v350h2v-350h-2zm1.109 349.01l-456-50-.218 1.98 456 50 .218-1.98zM521 2281v-230h-2v230h2zm19.152-249.01l456-70-.304-1.98-456 70 .304 1.98zM995 1961v350h2v-350h-2zm1.109 349.01l-456-50-.218 1.98 456 50 .218-1.98zM541 2261v-230h-2v230h2zm19.152-249.01l455.998-70-.3-1.98-456.002 70 .304 1.98zM1015 1941v350h2v-350h-2zm1.11 349.01l-456.001-50-.218 1.98 455.999 50 .22-1.98zM561 2241v-230h-2v230h2zm19.152-249.01l455.998-70-.3-1.98-456.002 70 .304 1.98zM1035 1921v350h2v-350h-2zm1.11 349.01l-456.001-50-.218 1.98 455.999 50 .22-1.98zM581 2221v-230h-2v230h2zm19.152-249.01l455.998-70-.3-1.98-456.002 70 .304 1.98zM1055 1901v350h2v-350h-2zm1.11 349.01l-456.001-50-.218 1.98 455.999 50 .22-1.98zM601 2201v-230h-2v230h2zm19.152-249.01l455.998-70-.3-1.98-456.002 70 .304 1.98zM1075 1881v350h2v-350h-2zm1.11 349.01l-456.001-50-.218 1.98 455.999 50 .22-1.98zM621 2181v-230h-2v230h2zm19.152-249.01l455.998-70-.3-1.98-456.002 70 .304 1.98zM1095 1861v350h2v-350h-2zm1.11 349.01l-456.001-50-.218 1.98 455.999 50 .22-1.98zM641 2161v-230h-2v230h2zm19.152-249.01l455.998-70-.3-1.98-456.002 70 .304 1.98zM1115 1841v350h2v-350h-2zm1.11 349.01l-456.001-50-.218 1.98 455.999 50 .22-1.98zM661 2141v-230h-2v230h2zm19.152-249.01l455.998-70-.3-1.98-456.002 70 .304 1.98zM1135 1821v350h2v-350h-2zm1.11 349.01l-456.001-50-.218 1.98 455.999 50 .22-1.98zM681 2121v-230h-2v230h2zm19.152-249.01l455.998-70-.3-1.98-456.002 70 .304 1.98zM1155 1801v350h2v-350h-2zm1.11 349.01l-456.001-50-.218 1.98 455.999 50 .22-1.98zM701 2101v-230h-2v230h2zm19.152-249.01l455.998-70-.3-1.98-456.002 70 .304 1.98zM1175 1781v350h2v-350h-2zm1.11 349.01l-456.001-50-.218 1.98 455.999 50 .22-1.98zM721 2081v-230h-2v230h2zm19.152-249.01l455.998-70-.3-1.98-456.002 70 .304 1.98zM1195 1761v350h2v-350h-2zm1.11 349.01l-456.001-50-.218 1.98 455.999 50 .22-1.98zM741 2061v-230h-2v230h2zm19.152-249.01l455.998-70-.3-1.98-456.002 70 .304 1.98zM1215 1741v350h2v-350h-2zm1.11 349.01l-456.001-50-.218 1.98 455.999 50 .22-1.98zM761 2041v-230h-2v230h2zm19.152-249.01l455.998-70-.3-1.98-456.002 70 .304 1.98zM1235 1721v350h2v-350h-2zm1.11 349.01l-456.001-50-.218 1.98 455.999 50 .22-1.98zM781 2021v-230h-2v230h2zm19.152-249.01l455.998-70-.3-1.98-456.002 70 .304 1.98zM1255 1701v350h2v-350h-2zm1.11 349.01l-456.001-50-.218 1.98 455.999 50 .22-1.98zM801 2001v-230h-2v230h2zm19.152-249.01l455.998-70-.3-1.98-456.002 70 .304 1.98zM1275 1681v350h2v-350h-2zm1.11 349.01l-456.001-50-.218 1.98 455.999 50 .22-1.98zM821 1981v-230h-2v230h2zm19.152-249.01l455.998-70-.3-1.98-456.002 70 .304 1.98zM1295 1661v350h2v-350h-2zm1.11 349.01l-456.001-50-.218 1.98 455.999 50 .22-1.98zM841 1961v-230h-2v230h2zm19.152-249.01l455.998-70-.3-1.98-456.002 70 .304 1.98zM1315 1641v350h2v-350h-2zm1.11 349.01l-456.001-50-.218 1.98 455.999 50 .22-1.98zM861 1941v-230h-2v230h2zm19.152-249.01l455.998-70-.3-1.98-456.002 70 .304 1.98zM1335 1621v350h2v-350h-2zm1.11 349.01l-456.001-50-.218 1.98 455.999 50 .22-1.98zM881 1921v-230h-2v230h2zm19.152-249.01l455.998-70-.3-1.98-456.002 70 .304 1.98zM1355 1601v350h2v-350h-2zm1.11 349.01l-456.001-50-.218 1.98 455.999 50 .22-1.98zM901 1901v-230h-2v230h2zm19.152-249.01l455.998-70-.3-1.98-456.002 70 .304 1.98zM1375 1581v350h2v-350h-2zm1.11 349.01l-456.001-50-.218 1.98 455.999 50 .22-1.98zM921 1881v-230h-2v230h2zm19.152-249.01l455.998-70-.3-1.98-456.002 70 .304 1.98zM1395 1561v350h2v-350h-2zm1.11 349.01l-456.001-50-.218 1.98 455.999 50 .22-1.98zM941 1861v-230h-2v230h2zm19.152-249.01l455.998-70-.3-1.98-456.002 70 .304 1.98zM1415 1541v350h2v-350h-2zm1.11 349.01l-456.001-50-.218 1.98 455.999 50 .22-1.98zM961 1841v-230h-2v230h2zm19.152-249.01l455.998-70-.3-1.98-456.002 70 .304 1.98zM1435 1521v350h2v-350h-2zm1.11 349.01l-456.001-50-.218 1.98 455.999 50 .22-1.98zM981 1821v-230h-2v230h2zm19.15-249.01l456-70-.3-1.98-456.002 70 .302 1.98zM1455 1501v350h2v-350h-2zm1.11 349.01l-456-50-.219 1.98 455.999 50 .22-1.98zM1001 1801v-230h-2v230h2zm19.15-249.01l456-70-.3-1.98-456 70 .3 1.98zM1475 1481v350h2v-350h-2zm1.11 349.01l-456-50-.22 1.98 456 50 .22-1.98zM1021 1781v-230h-2v230h2zm19.15-249.01l456-70-.3-1.98-456 70 .3 1.98zM1495 1461v350h2v-350h-2zm1.11 349.01l-456-50-.22 1.98 456 50 .22-1.98zM1041 1761v-230h-2v230h2zm19.15-249.01l456-70-.3-1.98-456 70 .3 1.98zM1515 1441v350h2v-350h-2zm1.11 349.01l-456-50-.22 1.98 456 50 .22-1.98zM1061 1741v-230h-2v230h2zm19.15-249.01l456-70-.3-1.98-456 70 .3 1.98zM1535 1421v350h2v-350h-2zm1.11 349.01l-456-50-.22 1.98 456 50 .22-1.98zM1081 1721v-230h-2v230h2zm19.15-249.01l456-70-.3-1.98-456 70 .3 1.98zM1555 1401v350h2v-350h-2zm1.11 349.01l-456-50-.22 1.98 456 50 .22-1.98zM1101 1701v-230h-2v230h2zm19.15-249.01l456-70-.3-1.98-456 70 .3 1.98zM1575 1381v350h2v-350h-2zm1.11 349.01l-456-50-.22 1.98 456 50 .22-1.98zM1121 1681v-230h-2v230h2zm19.15-249.01l456-70-.3-1.98-456 70 .3 1.98zM1595 1361v350h2v-350h-2zm1.11 349.01l-456-50-.22 1.98 456 50 .22-1.98zM1141 1661v-230h-2v230h2zm19.15-249.01l456-70-.3-1.98-456 70 .3 1.98zM1615 1341v350h2v-350h-2zm1.11 349.01l-456-50-.22 1.98 456 50 .22-1.98zM1161 1641v-230h-2v230h2zm19.15-249.01l456-70-.3-1.98-456 70 .3 1.98zM1635 1321v350h2v-350h-2zm1.11 349.01l-456-50-.22 1.98 456 50 .22-1.98zM1181 1621v-230h-2v230h2zm19.15-249.01l456-70-.3-1.98-456 70 .3 1.98zM1655 1301v350h2v-350h-2zm1.11 349.01l-456-50-.22 1.98 456 50 .22-1.98zM1201 1601v-230h-2v230h2zm19.15-249.01l456-70-.3-1.98-456 70 .3 1.98zM1675 1281v350h2v-350h-2zm1.11 349.01l-456-50-.22 1.98 456 50 .22-1.98zM1221 1581v-230h-2v230h2zm19.15-249.01l456-70-.3-1.98-456 70 .3 1.98zM1695 1261v350h2v-350h-2zm1.11 349.01l-456-50-.22 1.98 456 50 .22-1.98zM1241 1561v-230h-2v230h2zm19.15-249.01l456-70-.3-1.98-456 70 .3 1.98zM1715 1241v350h2v-350h-2zm1.11 349.01l-456-50-.22 1.98 456 50 .22-1.98zM1261 1541v-230h-2v230h2zm19.15-249.01l456-70-.3-1.98-456 70 .3 1.98zM1735 1221v350h2v-350h-2zm1.11 349.01l-456-50-.22 1.98 456 50 .22-1.98zM1281 1521v-230h-2v230h2zm19.15-249.01l456-70-.3-1.98-456 70 .3 1.98zM1755 1201v350h2v-350h-2zm1.11 349.01l-456-50-.22 1.98 456 50 .22-1.98zM1301 1501v-230h-2v230h2zm19.15-249.01l456-70-.3-1.98-456 70 .3 1.98zM1775 1181v350h2v-350h-2zm1.11 349.01l-456-50-.22 1.98 456 50 .22-1.98zM1321 1481v-230h-2v230h2zm19.15-249.01l456-70-.3-1.98-456 70 .3 1.98zM1795 1161v350h2v-350h-2zm1.11 349.01l-456-50-.22 1.98 456 50 .22-1.98zM1341 1461v-230h-2v230h2zm19.15-249.01l456-70-.3-1.98-456 70 .3 1.98zM1815 1141v350h2v-350h-2zm1.11 349.01l-456-50-.22 1.98 456 50 .22-1.98zM1361 1441v-230h-2v230h2zm19.15-249.01l456-70-.3-1.98-456 70 .3 1.98zM1835 1121v350h2v-350h-2zm1.11 349.01l-456-50-.22 1.98 456 50 .22-1.98zM1381 1421v-230h-2v230h2zm19.15-249.01l456-70-.3-1.98-456 70 .3 1.98zM1855 1101v350h2v-350h-2zm1.11 349.01l-456-50-.22 1.98 456 50 .22-1.98zM1401 1401v-230h-2v230h2zm19.15-249.01l456-70-.3-1.98-456 70 .3 1.98zM1875 1081v350h2v-350h-2zm1.11 349.01l-456-50-.22 1.98 456 50 .22-1.98zM1421 1381v-230h-2v230h2zm19.15-249.01l456-70-.3-1.98-456 70 .3 1.98zM1895 1061v350h2v-350h-2zm1.11 349.01l-456-50-.22 1.98 456 50 .22-1.98zM1441 1361v-230h-2v230h2zm19.15-249.01l456-70-.3-1.98-456 70 .3 1.98zM1915 1041v350h2v-350h-2zm1.11 349.01l-456-50-.22 1.98 456 50 .22-1.98zM1461 1341v-230h-2v230h2zm19.15-249.01l456-70-.3-1.98-456 70 .3 1.98zM1935 1021v350h2v-350h-2zm1.11 349.01l-456-50-.22 1.98 456 50 .22-1.98zM1481 1321v-230h-2v230h2zm19.15-249.01l456-70-.3-1.98-456 70 .3 1.98zM1955 1001v350h2v-350h-2zm1.11 349.01l-456-50-.22 1.98 456 50 .22-1.98zM1501 1301v-230h-2v230h2zm19.15-249.01l456-70.002-.3-1.976-456 69.998.3 1.98zM1975 981v350h2V981h-2zm1.11 349.01l-456-50-.22 1.98 456 50 .22-1.98zM1521 1281v-230h-2v230h2zm19.15-249.01l456-70.002-.3-1.976-456 69.998.3 1.98zM1995 961v350h2V961h-2zm1.11 349.01l-456-50-.22 1.98 456 50 .22-1.98zM1541 1261v-230h-2v230h2zm19.15-249.01l456-70.002-.3-1.976-456 69.998.3 1.98zM2015 941v350h2V941h-2zm1.11 349.01l-456-50-.22 1.98 456 50 .22-1.98zM1561 1241v-230h-2v230h2zm19.15-249.012l456-70-.3-1.976-456 70 .3 1.976zM2035 921v350h2V921h-2zm1.11 349.01l-456-50-.22 1.98 456 50 .22-1.98zM1581 1221V991h-2v230h2zm19.15-249.012l456-70-.3-1.976-456 70 .3 1.976zM2055 901v350h2V901h-2zm1.11 349.01l-456-50-.22 1.98 456 50 .22-1.98zM1601 1201V971h-2v230h2zm19.15-249.012l456-70-.3-1.976-456 70 .3 1.976zM2075 881v350h2V881h-2zm1.11 349.01l-456-50-.22 1.98 456 50 .22-1.98zM1621 1181V951h-2v230h2zm19.15-249.012l456-70-.3-1.976-456 70 .3 1.976zM2095 861v350h2V861h-2zm1.11 349.01l-456-50-.22 1.98 456 50 .22-1.98zM1641 1161V931h-2v230h2zm862.15-770.012l456-70-.3-1.976-456 70 .3 1.976zM2958 320v350h2V320h-2zm1.11 349.006l-456-50-.22 1.988 456 50 .22-1.988zM2504 620V390h-2v230h2zm19.15-249.012l456-70-.3-1.976-456 70 .3 1.976zM2978 300v350h2V300h-2zm1.11 349.006l-456-50-.22 1.988 456 50 .22-1.988zM2524 600V370h-2v230h2zm19.15-249.012l456-70-.3-1.976-456 70 .3 1.976zM2998 280v350h2V280h-2zm1.11 349.006l-456-50-.22 1.988 456 50 .22-1.988zM2544 580V350h-2v230h2zm19.15-249.012l456-70-.3-1.976-456 70 .3 1.976zM3018 260v350h2V260h-2zm1.11 349.006l-456-50-.22 1.988 456 50 .22-1.988zM2564 560V330h-2v230h2zm19.15-249.012l456-70-.3-1.976-456 70 .3 1.976zM3038 240v350h2V240h-2zm1.11 349.006l-456-50-.22 1.988 456 50 .22-1.988zM2584 540V310h-2v230h2zm19.15-249.012l456-70-.3-1.976-456 70 .3 1.976zM3058 220v350h2V220h-2zm1.11 349.006l-456-50-.22 1.988 456 50 .22-1.988zM2604 520V290h-2v230h2zm19.15-249.012l456-70-.3-1.976-456 70 .3 1.976zM3078 200v350h2V200h-2zm1.11 349.006l-456-50-.22 1.988 456 50 .22-1.988zM2624 500V270h-2v230h2zm19.15-249.012l456-70-.3-1.976-456 70 .3 1.976zM3098 180v350h2V180h-2zm1.11 349.006l-456-50-.22 1.988 456 50 .22-1.988zM2644 480V250h-2v230h2zm19.15-249.012l456-70-.3-1.976-456 70 .3 1.976zM3118 160v350h2V160h-2zm1.11 349.006l-456-50-.22 1.988 456 50 .22-1.988zM2664 460V230h-2v230h2zm19.15-249.012l456-70-.3-1.976-456 70 .3 1.976zM3138 140v350h2V140h-2zm1.11 349.006l-456-50-.22 1.988 456 50 .22-1.988zM2684 440V210h-2v230h2zm19.15-249.012l456-70-.3-1.976-456 70 .3 1.976zM3158 120v350h2V120h-2zm1.11 349.006l-456-50-.22 1.988 456 50 .22-1.988zM2704 420V190h-2v230h2zm19.15-249.012l456-70-.3-1.976-456 70 .3 1.976zM3178 100v350h2V100h-2zm1.11 349.006l-456-50-.22 1.988 456 50 .22-1.988zM2724 400V170h-2v230h2zm19.15-249.012l456-70-.3-1.976-456 70 .3 1.976zM3198 80v350h2V80h-2zm1.11 349.006l-456-50-.22 1.988 456 50 .22-1.988zM2744 380V150h-2v230h2zm19.15-249.012l456-70-.3-1.976-456 70 .3 1.976zM3218 60v350h2V60h-2zm1.11 349.006l-456-50-.22 1.988 456 50 .22-1.988zM2764 360V130h-2v230h2zm19.15-249.012l456-70-.3-1.976-456 70 .3 1.976zM3238 40v350h2V40h-2zm1.11 349.006l-456-50-.22 1.988 456 50 .22-1.988zM2784 340V110h-2v230h2zm19.15-249.012l456-70-.3-1.976-456 70 .3 1.976zM3258 20v350h2V20h-2zm1.11 349.006l-456-50-.22 1.988 456 50 .22-1.988zM2804 320V90h-2v230h2zm19.15-249.012l456-70-.3-1.976-456 70 .3 1.976zM3278 0v350h2V0h-2zm1.11 349.006l-456-50-.22 1.988 456 50 .22-1.988zM2824 300V70h-2v230h2z"/></defs></svg>