<svg width="699" height="446" viewBox="0 0 699 446" xmlns="http://www.w3.org/2000/svg" xmlns:xlink="http://www.w3.org/1999/xlink"><title>Vector</title><desc>Created using Figma</desc><g opacity=".05" transform="translate(-448 -352)"><mask id="r"><use xlink:href="#a" fill="#fff" transform="translate(371 152)"/><use xlink:href="#b" fill="#fff" transform="translate(371 152)"/><use xlink:href="#c" fill="#fff" transform="translate(371 152)"/><use xlink:href="#d" fill="#fff" transform="translate(371 152)"/><use xlink:href="#e" fill="#fff" transform="translate(371 152)"/><use xlink:href="#f" fill="#fff" transform="translate(371 152)"/><use xlink:href="#g" fill="#fff" transform="translate(371 152)"/><use xlink:href="#h" fill="#fff" transform="translate(371 152)"/><use xlink:href="#i" fill="#fff" transform="translate(371 152)"/><use xlink:href="#j" fill="#fff" transform="translate(371 152)"/><use xlink:href="#k" fill="#fff" transform="translate(371 152)"/><use xlink:href="#l" fill="#fff" transform="translate(371 152)"/><use xlink:href="#m" fill="#fff" transform="translate(371 152)"/><use xlink:href="#n" fill="#fff" transform="translate(371 152)"/><use xlink:href="#o" fill="#fff" transform="translate(371 152)"/><use xlink:href="#p" fill="#fff" transform="translate(371 152)"/><use xlink:href="#q" fill="#fff" transform="translate(371 152)"/></mask><g mask="url(#r)"><use xlink:href="#s" transform="translate(371 152)" fill="#4A90E2"/></g></g><defs><path id="a" fill-rule="evenodd" d="M776 390l-456-70v350l456-50V390z"/><path id="b" fill-rule="evenodd" d="M756 370l-456-70v350l456-50V370z"/><path id="c" fill-rule="evenodd" d="M736 350l-456-70v350l456-50V350z"/><path id="d" fill-rule="evenodd" d="M716 330l-456-70v350l456-50V330z"/><path id="e" fill-rule="evenodd" d="M696 310l-456-70v350l456-50V310z"/><path id="f" fill-rule="evenodd" d="M676 290l-456-70v350l456-50V290z"/><path id="g" fill-rule="evenodd" d="M656 270l-456-70v350l456-50V270z"/><path id="h" fill-rule="evenodd" d="M636 250l-456-70v350l456-50V250z"/><path id="i" fill-rule="evenodd" d="M616 230l-456-70v350l456-50V230z"/><path id="j" fill-rule="evenodd" d="M596 210l-456-70v350l456-50V210z"/><path id="k" fill-rule="evenodd" d="M576 190l-456-70v350l456-50V190z"/><path id="l" fill-rule="evenodd" d="M556 170l-456-70v350l456-50V170z"/><path id="m" fill-rule="evenodd" d="M536 150L80 80v350l456-50V150z"/><path id="n" fill-rule="evenodd" d="M516 130L60 60v350l456-50V130z"/><path id="o" fill-rule="evenodd" d="M496 110L40 40v350l456-50V110z"/><path id="p" fill-rule="evenodd" d="M476 90L20 20v350l456-50V90z"/><path id="q" fill-rule="evenodd" d="M456 70L0 0v350l456-50V70z"/><path id="s" d="M776 390h1v-.858l-.848-.13L776 390zm-456-70l.152-.988-1.152-.177V320h1zm0 350h-1v1.116l1.109-.122L320 670zm456-50l.109.994.891-.098V620h-1zm-20-250h1v-.858l-.848-.13L756 370zm-456-70l.152-.988-1.152-.177V300h1zm0 350h-1v1.116l1.109-.122L300 650zm456-50l.109.994.891-.098V600h-1zm-20-250h1v-.858l-.848-.13L736 350zm-456-70l.152-.988-1.152-.177V280h1zm0 350h-1v1.116l1.109-.122L280 630zm456-50l.109.994.891-.098V580h-1zm-20-250h1v-.858l-.848-.13L716 330zm-456-70l.152-.988-1.152-.177V260h1zm0 350h-1v1.116l1.109-.122L260 610zm456-50l.109.994.891-.098V560h-1zm-20-250h1v-.858l-.848-.13L696 310zm-456-70l.152-.988-1.152-.177V240h1zm0 350h-1v1.116l1.109-.122L240 590zm456-50l.109.994.891-.098V540h-1zm-20-250h1v-.858l-.848-.13L676 290zm-456-70l.152-.988-1.152-.177V220h1zm0 350h-1v1.116l1.109-.122L220 570zm456-50l.109.994.891-.098V520h-1zm-20-250h1v-.858l-.848-.13L656 270zm-456-70l.152-.988-1.152-.177V200h1zm0 350h-1v1.116l1.109-.122L200 550zm456-50l.109.994.891-.098V500h-1zm-20-250h1v-.858l-.848-.13L636 250zm-456-70l.152-.988-1.152-.177V180h1zm0 350h-1v1.116l1.109-.122L180 530zm456-50l.109.994.891-.098V480h-1zm-20-250h1v-.858l-.848-.13L616 230zm-456-70l.152-.988-1.152-.177V160h1zm0 350h-1v1.116l1.109-.122L160 510zm456-50l.109.994.891-.098V460h-1zm-20-250h1v-.858l-.848-.13L596 210zm-456-70l.152-.988-1.152-.177V140h1zm0 350h-1v1.116l1.109-.122L140 490zm456-50l.109.994.891-.098V440h-1zm-20-250h1v-.858l-.848-.13L576 190zm-456-70l.152-.988-1.152-.177V120h1zm0 350h-1v1.116l1.109-.122L120 470zm456-50l.109.994.891-.098V420h-1zm-20-250h1v-.858l-.848-.13L556 170zm-456-70l.152-.988L99 98.835V100h1zm0 350h-1v1.116l1.109-.122L100 450zm456-50l.109.994.891-.098V400h-1zm-20-250h1v-.858l-.848-.13L536 150zM80 80l.152-.988L79 78.835V80h1zm0 350h-1v1.116l1.109-.122L80 430zm456-50l.109.994.891-.098V380h-1zm-20-250h1v-.858l-.848-.13L516 130zM60 60l.152-.988L59 58.835V60h1zm0 350h-1v1.116l1.109-.122L60 410zm456-50l.109.994.891-.098V360h-1zm-20-250h1v-.858l-.848-.13L496 110zM40 40l.152-.988L39 38.835V40h1zm0 350h-1v1.116l1.109-.122L40 390zm456-50l.109.994.891-.098V340h-1zM476 90h1v-.858l-.848-.13L476 90zM20 20l.152-.988L19 18.835V20h1zm0 350h-1v1.116l1.109-.122L20 370zm456-50l.109.994.891-.098V320h-1zM456 70h1v-.858l-.848-.13L456 70zM0 0l.152-.988L-1-1.165V0h1zm0 350h-1v1.116l1.109-.122L0 350zm456-50l.109.994.891-.098V300h-1zm320.152 89.012l-456-70-.304 1.976 456 70 .304-1.976zM319 320v350h2V320h-2zm1.109 350.994l456-50-.218-1.988-456 50 .218 1.988zM777 620V390h-2v230h2zm-20.848-250.988l-456-70-.304 1.976 456 70 .304-1.976zM299 300v350h2V300h-2zm1.109 350.994l456-50-.218-1.988-456 50 .218 1.988zM757 600V370h-2v230h2zm-20.848-250.988l-456-70-.304 1.976 456 70 .304-1.976zM279 280v350h2V280h-2zm1.109 350.994l456-50-.218-1.988-456 50 .218 1.988zM737 580V350h-2v230h2zm-20.848-250.988l-456-70-.304 1.976 456 70 .304-1.976zM259 260v350h2V260h-2zm1.109 350.994l456-50-.218-1.988-456 50 .218 1.988zM717 560V330h-2v230h2zm-20.848-250.988l-456-70-.304 1.976 456 70 .304-1.976zM239 240v350h2V240h-2zm1.109 350.994l456-50-.218-1.988-456 50 .218 1.988zM697 540V310h-2v230h2zm-20.848-250.988l-456-70-.304 1.976 456 70 .304-1.976zM219 220v350h2V220h-2zm1.109 350.994l456-50-.218-1.988-456 50 .218 1.988zM677 520V290h-2v230h2zm-20.848-250.988l-456-70-.304 1.976 456 70 .304-1.976zM199 200v350h2V200h-2zm1.109 350.994l456-50-.218-1.988-456 50 .218 1.988zM657 500V270h-2v230h2zm-20.848-250.988l-456-70-.304 1.976 456 70 .304-1.976zM179 180v350h2V180h-2zm1.109 350.994l456-50-.218-1.988-456 50 .218 1.988zM637 480V250h-2v230h2zm-20.848-250.988l-456-70-.304 1.976 456 70 .304-1.976zM159 160v350h2V160h-2zm1.109 350.994l456-50-.218-1.988-456 50 .218 1.988zM617 460V230h-2v230h2zm-20.848-250.988l-456-70-.304 1.976 456 70 .304-1.976zM139 140v350h2V140h-2zm1.109 350.994l456-50-.218-1.988-456 50 .218 1.988zM597 440V210h-2v230h2zm-20.848-250.988l-456-70-.304 1.976 456 70 .304-1.976zM119 120v350h2V120h-2zm1.109 350.994l456-50-.218-1.988-456 50 .218 1.988zM577 420V190h-2v230h2zm-20.848-250.988l-456-70-.304 1.976 456 70 .304-1.976zM99 100v350h2V100h-2zm1.109 350.994l456-50-.218-1.988-456 50 .218 1.988zM557 400V170h-2v230h2zm-20.848-250.988l-456-70-.304 1.976 456 70 .304-1.976zM79 80v350h2V80h-2zm1.109 350.994l456-50-.218-1.988-456 50 .218 1.988zM537 380V150h-2v230h2zm-20.848-250.988l-456-70-.304 1.976 456 70 .304-1.976zM59 60v350h2V60h-2zm1.109 350.994l456-50-.218-1.988-456 50 .218 1.988zM517 360V130h-2v230h2zm-20.848-250.988l-456-70-.304 1.976 456 70 .304-1.976zM39 40v350h2V40h-2zm1.109 350.994l456-50-.218-1.988-456 50 .218 1.988zM497 340V110h-2v230h2zM476.152 89.012l-456-70-.304 1.976 456 70 .304-1.976zM19 20v350h2V20h-2zm1.109 350.994l456-50-.218-1.988-456 50 .218 1.988zM477 320V90h-2v230h2zM456.152 69.012l-456-70L-.152.988l456 70 .304-1.976zM-1 0v350h2V0h-2zM.109 350.994l456-50-.218-1.988-456 50 .218 1.988zM457 300V70h-2v230h2z"/></defs></svg>