<svg width="350" height="600" viewBox="0 0 350 600" version="1.1" xmlns="http://www.w3.org/2000/svg" xmlns:xlink="http://www.w3.org/1999/xlink">
<title>Vector</title>
<desc>Created using Figma</desc>
<g id="Canvas" transform="translate(-448 -850)">
<g id="Vector" opacity="0.05">
<mask id="mask0_outline_ins">
<use xlink:href="#path72_fill" fill="white" transform="translate(-1299 22)"/>
<use xlink:href="#path73_fill" fill="white" transform="translate(-1299 22)"/>
<use xlink:href="#path74_fill" fill="white" transform="translate(-1299 22)"/>
<use xlink:href="#path75_fill" fill="white" transform="translate(-1299 22)"/>
<use xlink:href="#path76_fill" fill="white" transform="translate(-1299 22)"/>
<use xlink:href="#path77_fill" fill="white" transform="translate(-1299 22)"/>
<use xlink:href="#path78_fill" fill="white" transform="translate(-1299 22)"/>
<use xlink:href="#path79_fill" fill="white" transform="translate(-1299 22)"/>
<use xlink:href="#path80_fill" fill="white" transform="translate(-1299 22)"/>
<use xlink:href="#path81_fill" fill="white" transform="translate(-1299 22)"/>
<use xlink:href="#path82_fill" fill="white" transform="translate(-1299 22)"/>
</mask>
<g mask="url(#mask0_outline_ins)">
<use xlink:href="#path100_stroke_2x" transform="translate(-1299 22)" fill="#00489D"/>
</g>
</g>
</g>
<defs>
<path id="path72_fill" fill-rule="evenodd" d="M 1440 1131L 1896 1061L 1896 1411L 1440 1361L 1440 1131Z"/>
<path id="path73_fill" fill-rule="evenodd" d="M 1460 1111L 1916 1041L 1916 1391L 1460 1341L 1460 1111Z"/>
<path id="path74_fill" fill-rule="evenodd" d="M 1480 1091L 1936 1021L 1936 1371L 1480 1321L 1480 1091Z"/>
<path id="path75_fill" fill-rule="evenodd" d="M 1500 1071L 1956 1001L 1956 1351L 1500 1301L 1500 1071Z"/>
<path id="path76_fill" fill-rule="evenodd" d="M 1520 1051L 1976 981L 1976 1331L 1520 1281L 1520 1051Z"/>
<path id="path77_fill" fill-rule="evenodd" d="M 1540 1031L 1996 961L 1996 1311L 1540 1261L 1540 1031Z"/>
<path id="path78_fill" fill-rule="evenodd" d="M 1560 1011L 2016 941L 2016 1291L 1560 1241L 1560 1011Z"/>
<path id="path79_fill" fill-rule="evenodd" d="M 1580 991L 2036 921L 2036 1271L 1580 1221L 1580 991Z"/>
<path id="path80_fill" fill-rule="evenodd" d="M 1600 971L 2056 901L 2056 1251L 1600 1201L 1600 971Z"/>
<path id="path81_fill" fill-rule="evenodd" d="M 1620 951L 2076 881L 2076 1231L 1620 1181L 1620 951Z"/>
<path id="path82_fill" fill-rule="evenodd" d="M 1640 931L 2096 861L 2096 1211L 1640 1161L 1640 931Z"/>
<path id="path100_stroke_2x" d="M 0 2571L -0.151731 2570.01L -1 2570.14L -1 2571L 0 2571ZM 456 2501L 457 2501L 457 2499.83L 455.848 2500.01L 456 2501ZM 456 2851L 455.891 2851.99L 457 2852.12L 457 2851L 456 2851ZM 0 2801L -1 2801L -1 2801.9L -0.108996 2801.99L 0 2801ZM 20 2551L 19.8483 2550.01L 19 2550.14L 19 2551L 20 2551ZM 476 2481L 477 2481L 477 2479.83L 475.848 2480.01L 476 2481ZM 476 2831L 475.891 2831.99L 477 2832.12L 477 2831L 476 2831ZM 20 2781L 19 2781L 19 2781.9L 19.891 2781.99L 20 2781ZM 40 2531L 39.8483 2530.01L 39 2530.14L 39 2531L 40 2531ZM 496 2461L 497 2461L 497 2459.83L 495.848 2460.01L 496 2461ZM 496 2811L 495.891 2811.99L 497 2812.12L 497 2811L 496 2811ZM 40 2761L 39 2761L 39 2761.9L 39.891 2761.99L 40 2761ZM 60 2511L 59.8483 2510.01L 59 2510.14L 59 2511L 60 2511ZM 516 2441L 517 2441L 517 2439.83L 515.848 2440.01L 516 2441ZM 516 2791L 515.891 2791.99L 517 2792.12L 517 2791L 516 2791ZM 60 2741L 59 2741L 59 2741.9L 59.891 2741.99L 60 2741ZM 80 2491L 79.8483 2490.01L 79 2490.14L 79 2491L 80 2491ZM 536 2421L 537 2421L 537 2419.83L 535.848 2420.01L 536 2421ZM 536 2771L 535.891 2771.99L 537 2772.12L 537 2771L 536 2771ZM 80 2721L 79 2721L 79 2721.9L 79.891 2721.99L 80 2721ZM 100 2471L 99.8483 2470.01L 99 2470.14L 99 2471L 100 2471ZM 556 2401L 557 2401L 557 2399.83L 555.848 2400.01L 556 2401ZM 556 2751L 555.891 2751.99L 557 2752.12L 557 2751L 556 2751ZM 100 2701L 99 2701L 99 2701.9L 99.891 2701.99L 100 2701ZM 120 2451L 119.848 2450.01L 119 2450.14L 119 2451L 120 2451ZM 576 2381L 577 2381L 577 2379.83L 575.848 2380.01L 576 2381ZM 576 2731L 575.891 2731.99L 577 2732.12L 577 2731L 576 2731ZM 120 2681L 119 2681L 119 2681.9L 119.891 2681.99L 120 2681ZM 140 2431L 139.848 2430.01L 139 2430.14L 139 2431L 140 2431ZM 596 2361L 597 2361L 597 2359.83L 595.848 2360.01L 596 2361ZM 596 2711L 595.891 2711.99L 597 2712.12L 597 2711L 596 2711ZM 140 2661L 139 2661L 139 2661.9L 139.891 2661.99L 140 2661ZM 160 2411L 159.848 2410.01L 159 2410.14L 159 2411L 160 2411ZM 616 2341L 617 2341L 617 2339.83L 615.848 2340.01L 616 2341ZM 616 2691L 615.891 2691.99L 617 2692.12L 617 2691L 616 2691ZM 160 2641L 159 2641L 159 2641.9L 159.891 2641.99L 160 2641ZM 180 2391L 179.848 2390.01L 179 2390.14L 179 2391L 180 2391ZM 636 2321L 637 2321L 637 2319.83L 635.848 2320.01L 636 2321ZM 636 2671L 635.891 2671.99L 637 2672.12L 637 2671L 636 2671ZM 180 2621L 179 2621L 179 2621.9L 179.891 2621.99L 180 2621ZM 200 2371L 199.848 2370.01L 199 2370.14L 199 2371L 200 2371ZM 656 2301L 657 2301L 657 2299.83L 655.848 2300.01L 656 2301ZM 656 2651L 655.891 2651.99L 657 2652.12L 657 2651L 656 2651ZM 200 2601L 199 2601L 199 2601.9L 199.891 2601.99L 200 2601ZM 220 2351L 219.848 2350.01L 219 2350.14L 219 2351L 220 2351ZM 676 2281L 677 2281L 677 2279.83L 675.848 2280.01L 676 2281ZM 676 2631L 675.891 2631.99L 677 2632.12L 677 2631L 676 2631ZM 220 2581L 219 2581L 219 2581.9L 219.891 2581.99L 220 2581ZM 240 2331L 239.848 2330.01L 239 2330.14L 239 2331L 240 2331ZM 696 2261L 697 2261L 697 2259.83L 695.848 2260.01L 696 2261ZM 696 2611L 695.891 2611.99L 697 2612.12L 697 2611L 696 2611ZM 240 2561L 239 2561L 239 2561.9L 239.891 2561.99L 240 2561ZM 260 2311L 259.848 2310.01L 259 2310.14L 259 2311L 260 2311ZM 716 2241L 717 2241L 717 2239.83L 715.848 2240.01L 716 2241ZM 716 2591L 715.891 2591.99L 717 2592.12L 717 2591L 716 2591ZM 260 2541L 259 2541L 259 2541.9L 259.891 2541.99L 260 2541ZM 280 2291L 279.848 2290.01L 279 2290.14L 279 2291L 280 2291ZM 736 2221L 737 2221L 737 2219.83L 735.848 2220.01L 736 2221ZM 736 2571L 735.891 2571.99L 737 2572.12L 737 2571L 736 2571ZM 280 2521L 279 2521L 279 2521.9L 279.891 2521.99L 280 2521ZM 300 2271L 299.848 2270.01L 299 2270.14L 299 2271L 300 2271ZM 756 2201L 757 2201L 757 2199.83L 755.848 2200.01L 756 2201ZM 756 2551L 755.891 2551.99L 757 2552.12L 757 2551L 756 2551ZM 300 2501L 299 2501L 299 2501.9L 299.891 2501.99L 300 2501ZM 320 2251L 319.848 2250.01L 319 2250.14L 319 2251L 320 2251ZM 776 2181L 777 2181L 777 2179.83L 775.848 2180.01L 776 2181ZM 776 2531L 775.891 2531.99L 777 2532.12L 777 2531L 776 2531ZM 320 2481L 319 2481L 319 2481.9L 319.891 2481.99L 320 2481ZM 340 2231L 339.848 2230.01L 339 2230.14L 339 2231L 340 2231ZM 796 2161L 797 2161L 797 2159.83L 795.848 2160.01L 796 2161ZM 796 2511L 795.891 2511.99L 797 2512.12L 797 2511L 796 2511ZM 340 2461L 339 2461L 339 2461.9L 339.891 2461.99L 340 2461ZM 360 2211L 359.848 2210.01L 359 2210.14L 359 2211L 360 2211ZM 816 2141L 817 2141L 817 2139.83L 815.848 2140.01L 816 2141ZM 816 2491L 815.891 2491.99L 817 2492.12L 817 2491L 816 2491ZM 360 2441L 359 2441L 359 2441.9L 359.891 2441.99L 360 2441ZM 380 2191L 379.848 2190.01L 379 2190.14L 379 2191L 380 2191ZM 836 2121L 837 2121L 837 2119.83L 835.848 2120.01L 836 2121ZM 836 2471L 835.891 2471.99L 837 2472.12L 837 2471L 836 2471ZM 380 2421L 379 2421L 379 2421.9L 379.891 2421.99L 380 2421ZM 400 2171L 399.848 2170.01L 399 2170.14L 399 2171L 400 2171ZM 856 2101L 857 2101L 857 2099.83L 855.848 2100.01L 856 2101ZM 856 2451L 855.891 2451.99L 857 2452.12L 857 2451L 856 2451ZM 400 2401L 399 2401L 399 2401.9L 399.891 2401.99L 400 2401ZM 420 2151L 419.848 2150.01L 419 2150.14L 419 2151L 420 2151ZM 876 2081L 877 2081L 877 2079.83L 875.848 2080.01L 876 2081ZM 876 2431L 875.891 2431.99L 877 2432.12L 877 2431L 876 2431ZM 420 2381L 419 2381L 419 2381.9L 419.891 2381.99L 420 2381ZM 440 2131L 439.848 2130.01L 439 2130.14L 439 2131L 440 2131ZM 896 2061L 897 2061L 897 2059.83L 895.848 2060.01L 896 2061ZM 896 2411L 895.891 2411.99L 897 2412.12L 897 2411L 896 2411ZM 440 2361L 439 2361L 439 2361.9L 439.891 2361.99L 440 2361ZM 460 2111L 459.848 2110.01L 459 2110.14L 459 2111L 460 2111ZM 916 2041L 917 2041L 917 2039.83L 915.848 2040.01L 916 2041ZM 916 2391L 915.891 2391.99L 917 2392.12L 917 2391L 916 2391ZM 460 2341L 459 2341L 459 2341.9L 459.891 2341.99L 460 2341ZM 480 2091L 479.848 2090.01L 479 2090.14L 479 2091L 480 2091ZM 936 2021L 937 2021L 937 2019.83L 935.848 2020.01L 936 2021ZM 936 2371L 935.891 2371.99L 937 2372.12L 937 2371L 936 2371ZM 480 2321L 479 2321L 479 2321.9L 479.891 2321.99L 480 2321ZM 500 2071L 499.848 2070.01L 499 2070.14L 499 2071L 500 2071ZM 956 2001L 957 2001L 957 1999.83L 955.848 2000.01L 956 2001ZM 956 2351L 955.891 2351.99L 957 2352.12L 957 2351L 956 2351ZM 500 2301L 499 2301L 499 2301.9L 499.891 2301.99L 500 2301ZM 520 2051L 519.848 2050.01L 519 2050.14L 519 2051L 520 2051ZM 976 1981L 977 1981L 977 1979.83L 975.848 1980.01L 976 1981ZM 976 2331L 975.891 2331.99L 977 2332.12L 977 2331L 976 2331ZM 520 2281L 519 2281L 519 2281.9L 519.891 2281.99L 520 2281ZM 540 2031L 539.848 2030.01L 539 2030.14L 539 2031L 540 2031ZM 996 1961L 997 1961L 997 1959.83L 995.848 1960.01L 996 1961ZM 996 2311L 995.891 2311.99L 997 2312.12L 997 2311L 996 2311ZM 540 2261L 539 2261L 539 2261.9L 539.891 2261.99L 540 2261ZM 560 2011L 559.848 2010.01L 559 2010.14L 559 2011L 560 2011ZM 1016 1941L 1017 1941L 1017 1939.83L 1015.85 1940.01L 1016 1941ZM 1016 2291L 1015.89 2291.99L 1017 2292.12L 1017 2291L 1016 2291ZM 560 2241L 559 2241L 559 2241.9L 559.891 2241.99L 560 2241ZM 580 1991L 579.848 1990.01L 579 1990.14L 579 1991L 580 1991ZM 1036 1921L 1037 1921L 1037 1919.83L 1035.85 1920.01L 1036 1921ZM 1036 2271L 1035.89 2271.99L 1037 2272.12L 1037 2271L 1036 2271ZM 580 2221L 579 2221L 579 2221.9L 579.891 2221.99L 580 2221ZM 600 1971L 599.848 1970.01L 599 1970.14L 599 1971L 600 1971ZM 1056 1901L 1057 1901L 1057 1899.83L 1055.85 1900.01L 1056 1901ZM 1056 2251L 1055.89 2251.99L 1057 2252.12L 1057 2251L 1056 2251ZM 600 2201L 599 2201L 599 2201.9L 599.891 2201.99L 600 2201ZM 620 1951L 619.848 1950.01L 619 1950.14L 619 1951L 620 1951ZM 1076 1881L 1077 1881L 1077 1879.83L 1075.85 1880.01L 1076 1881ZM 1076 2231L 1075.89 2231.99L 1077 2232.12L 1077 2231L 1076 2231ZM 620 2181L 619 2181L 619 2181.9L 619.891 2181.99L 620 2181ZM 640 1931L 639.848 1930.01L 639 1930.14L 639 1931L 640 1931ZM 1096 1861L 1097 1861L 1097 1859.83L 1095.85 1860.01L 1096 1861ZM 1096 2211L 1095.89 2211.99L 1097 2212.12L 1097 2211L 1096 2211ZM 640 2161L 639 2161L 639 2161.9L 639.891 2161.99L 640 2161ZM 660 1911L 659.848 1910.01L 659 1910.14L 659 1911L 660 1911ZM 1116 1841L 1117 1841L 1117 1839.83L 1115.85 1840.01L 1116 1841ZM 1116 2191L 1115.89 2191.99L 1117 2192.12L 1117 2191L 1116 2191ZM 660 2141L 659 2141L 659 2141.9L 659.891 2141.99L 660 2141ZM 680 1891L 679.848 1890.01L 679 1890.14L 679 1891L 680 1891ZM 1136 1821L 1137 1821L 1137 1819.83L 1135.85 1820.01L 1136 1821ZM 1136 2171L 1135.89 2171.99L 1137 2172.12L 1137 2171L 1136 2171ZM 680 2121L 679 2121L 679 2121.9L 679.891 2121.99L 680 2121ZM 700 1871L 699.848 1870.01L 699 1870.14L 699 1871L 700 1871ZM 1156 1801L 1157 1801L 1157 1799.83L 1155.85 1800.01L 1156 1801ZM 1156 2151L 1155.89 2151.99L 1157 2152.12L 1157 2151L 1156 2151ZM 700 2101L 699 2101L 699 2101.9L 699.891 2101.99L 700 2101ZM 720 1851L 719.848 1850.01L 719 1850.14L 719 1851L 720 1851ZM 1176 1781L 1177 1781L 1177 1779.83L 1175.85 1780.01L 1176 1781ZM 1176 2131L 1175.89 2131.99L 1177 2132.12L 1177 2131L 1176 2131ZM 720 2081L 719 2081L 719 2081.9L 719.891 2081.99L 720 2081ZM 740 1831L 739.848 1830.01L 739 1830.14L 739 1831L 740 1831ZM 1196 1761L 1197 1761L 1197 1759.83L 1195.85 1760.01L 1196 1761ZM 1196 2111L 1195.89 2111.99L 1197 2112.12L 1197 2111L 1196 2111ZM 740 2061L 739 2061L 739 2061.9L 739.891 2061.99L 740 2061ZM 760 1811L 759.848 1810.01L 759 1810.14L 759 1811L 760 1811ZM 1216 1741L 1217 1741L 1217 1739.83L 1215.85 1740.01L 1216 1741ZM 1216 2091L 1215.89 2091.99L 1217 2092.12L 1217 2091L 1216 2091ZM 760 2041L 759 2041L 759 2041.9L 759.891 2041.99L 760 2041ZM 780 1791L 779.848 1790.01L 779 1790.14L 779 1791L 780 1791ZM 1236 1721L 1237 1721L 1237 1719.83L 1235.85 1720.01L 1236 1721ZM 1236 2071L 1235.89 2071.99L 1237 2072.12L 1237 2071L 1236 2071ZM 780 2021L 779 2021L 779 2021.9L 779.891 2021.99L 780 2021ZM 800 1771L 799.848 1770.01L 799 1770.14L 799 1771L 800 1771ZM 1256 1701L 1257 1701L 1257 1699.83L 1255.85 1700.01L 1256 1701ZM 1256 2051L 1255.89 2051.99L 1257 2052.12L 1257 2051L 1256 2051ZM 800 2001L 799 2001L 799 2001.9L 799.891 2001.99L 800 2001ZM 820 1751L 819.848 1750.01L 819 1750.14L 819 1751L 820 1751ZM 1276 1681L 1277 1681L 1277 1679.83L 1275.85 1680.01L 1276 1681ZM 1276 2031L 1275.89 2031.99L 1277 2032.12L 1277 2031L 1276 2031ZM 820 1981L 819 1981L 819 1981.9L 819.891 1981.99L 820 1981ZM 840 1731L 839.848 1730.01L 839 1730.14L 839 1731L 840 1731ZM 1296 1661L 1297 1661L 1297 1659.83L 1295.85 1660.01L 1296 1661ZM 1296 2011L 1295.89 2011.99L 1297 2012.12L 1297 2011L 1296 2011ZM 840 1961L 839 1961L 839 1961.9L 839.891 1961.99L 840 1961ZM 860 1711L 859.848 1710.01L 859 1710.14L 859 1711L 860 1711ZM 1316 1641L 1317 1641L 1317 1639.83L 1315.85 1640.01L 1316 1641ZM 1316 1991L 1315.89 1991.99L 1317 1992.12L 1317 1991L 1316 1991ZM 860 1941L 859 1941L 859 1941.9L 859.891 1941.99L 860 1941ZM 880 1691L 879.848 1690.01L 879 1690.14L 879 1691L 880 1691ZM 1336 1621L 1337 1621L 1337 1619.83L 1335.85 1620.01L 1336 1621ZM 1336 1971L 1335.89 1971.99L 1337 1972.12L 1337 1971L 1336 1971ZM 880 1921L 879 1921L 879 1921.9L 879.891 1921.99L 880 1921ZM 900 1671L 899.848 1670.01L 899 1670.14L 899 1671L 900 1671ZM 1356 1601L 1357 1601L 1357 1599.83L 1355.85 1600.01L 1356 1601ZM 1356 1951L 1355.89 1951.99L 1357 1952.12L 1357 1951L 1356 1951ZM 900 1901L 899 1901L 899 1901.9L 899.891 1901.99L 900 1901ZM 920 1651L 919.848 1650.01L 919 1650.14L 919 1651L 920 1651ZM 1376 1581L 1377 1581L 1377 1579.83L 1375.85 1580.01L 1376 1581ZM 1376 1931L 1375.89 1931.99L 1377 1932.12L 1377 1931L 1376 1931ZM 920 1881L 919 1881L 919 1881.9L 919.891 1881.99L 920 1881ZM 940 1631L 939.848 1630.01L 939 1630.14L 939 1631L 940 1631ZM 1396 1561L 1397 1561L 1397 1559.83L 1395.85 1560.01L 1396 1561ZM 1396 1911L 1395.89 1911.99L 1397 1912.12L 1397 1911L 1396 1911ZM 940 1861L 939 1861L 939 1861.9L 939.891 1861.99L 940 1861ZM 960 1611L 959.848 1610.01L 959 1610.14L 959 1611L 960 1611ZM 1416 1541L 1417 1541L 1417 1539.83L 1415.85 1540.01L 1416 1541ZM 1416 1891L 1415.89 1891.99L 1417 1892.12L 1417 1891L 1416 1891ZM 960 1841L 959 1841L 959 1841.9L 959.891 1841.99L 960 1841ZM 980 1591L 979.848 1590.01L 979 1590.14L 979 1591L 980 1591ZM 1436 1521L 1437 1521L 1437 1519.83L 1435.85 1520.01L 1436 1521ZM 1436 1871L 1435.89 1871.99L 1437 1872.12L 1437 1871L 1436 1871ZM 980 1821L 979 1821L 979 1821.9L 979.891 1821.99L 980 1821ZM 1000 1571L 999.848 1570.01L 999 1570.14L 999 1571L 1000 1571ZM 1456 1501L 1457 1501L 1457 1499.83L 1455.85 1500.01L 1456 1501ZM 1456 1851L 1455.89 1851.99L 1457 1852.12L 1457 1851L 1456 1851ZM 1000 1801L 999 1801L 999 1801.9L 999.891 1801.99L 1000 1801ZM 1020 1551L 1019.85 1550.01L 1019 1550.14L 1019 1551L 1020 1551ZM 1476 1481L 1477 1481L 1477 1479.83L 1475.85 1480.01L 1476 1481ZM 1476 1831L 1475.89 1831.99L 1477 1832.12L 1477 1831L 1476 1831ZM 1020 1781L 1019 1781L 1019 1781.9L 1019.89 1781.99L 1020 1781ZM 1040 1531L 1039.85 1530.01L 1039 1530.14L 1039 1531L 1040 1531ZM 1496 1461L 1497 1461L 1497 1459.83L 1495.85 1460.01L 1496 1461ZM 1496 1811L 1495.89 1811.99L 1497 1812.12L 1497 1811L 1496 1811ZM 1040 1761L 1039 1761L 1039 1761.9L 1039.89 1761.99L 1040 1761ZM 1060 1511L 1059.85 1510.01L 1059 1510.14L 1059 1511L 1060 1511ZM 1516 1441L 1517 1441L 1517 1439.83L 1515.85 1440.01L 1516 1441ZM 1516 1791L 1515.89 1791.99L 1517 1792.12L 1517 1791L 1516 1791ZM 1060 1741L 1059 1741L 1059 1741.9L 1059.89 1741.99L 1060 1741ZM 1080 1491L 1079.85 1490.01L 1079 1490.14L 1079 1491L 1080 1491ZM 1536 1421L 1537 1421L 1537 1419.83L 1535.85 1420.01L 1536 1421ZM 1536 1771L 1535.89 1771.99L 1537 1772.12L 1537 1771L 1536 1771ZM 1080 1721L 1079 1721L 1079 1721.9L 1079.89 1721.99L 1080 1721ZM 1100 1471L 1099.85 1470.01L 1099 1470.14L 1099 1471L 1100 1471ZM 1556 1401L 1557 1401L 1557 1399.83L 1555.85 1400.01L 1556 1401ZM 1556 1751L 1555.89 1751.99L 1557 1752.12L 1557 1751L 1556 1751ZM 1100 1701L 1099 1701L 1099 1701.9L 1099.89 1701.99L 1100 1701ZM 1120 1451L 1119.85 1450.01L 1119 1450.14L 1119 1451L 1120 1451ZM 1576 1381L 1577 1381L 1577 1379.83L 1575.85 1380.01L 1576 1381ZM 1576 1731L 1575.89 1731.99L 1577 1732.12L 1577 1731L 1576 1731ZM 1120 1681L 1119 1681L 1119 1681.9L 1119.89 1681.99L 1120 1681ZM 1140 1431L 1139.85 1430.01L 1139 1430.14L 1139 1431L 1140 1431ZM 1596 1361L 1597 1361L 1597 1359.83L 1595.85 1360.01L 1596 1361ZM 1596 1711L 1595.89 1711.99L 1597 1712.12L 1597 1711L 1596 1711ZM 1140 1661L 1139 1661L 1139 1661.9L 1139.89 1661.99L 1140 1661ZM 1160 1411L 1159.85 1410.01L 1159 1410.14L 1159 1411L 1160 1411ZM 1616 1341L 1617 1341L 1617 1339.83L 1615.85 1340.01L 1616 1341ZM 1616 1691L 1615.89 1691.99L 1617 1692.12L 1617 1691L 1616 1691ZM 1160 1641L 1159 1641L 1159 1641.9L 1159.89 1641.99L 1160 1641ZM 1180 1391L 1179.85 1390.01L 1179 1390.14L 1179 1391L 1180 1391ZM 1636 1321L 1637 1321L 1637 1319.83L 1635.85 1320.01L 1636 1321ZM 1636 1671L 1635.89 1671.99L 1637 1672.12L 1637 1671L 1636 1671ZM 1180 1621L 1179 1621L 1179 1621.9L 1179.89 1621.99L 1180 1621ZM 1200 1371L 1199.85 1370.01L 1199 1370.14L 1199 1371L 1200 1371ZM 1656 1301L 1657 1301L 1657 1299.83L 1655.85 1300.01L 1656 1301ZM 1656 1651L 1655.89 1651.99L 1657 1652.12L 1657 1651L 1656 1651ZM 1200 1601L 1199 1601L 1199 1601.9L 1199.89 1601.99L 1200 1601ZM 1220 1351L 1219.85 1350.01L 1219 1350.14L 1219 1351L 1220 1351ZM 1676 1281L 1677 1281L 1677 1279.83L 1675.85 1280.01L 1676 1281ZM 1676 1631L 1675.89 1631.99L 1677 1632.12L 1677 1631L 1676 1631ZM 1220 1581L 1219 1581L 1219 1581.9L 1219.89 1581.99L 1220 1581ZM 1240 1331L 1239.85 1330.01L 1239 1330.14L 1239 1331L 1240 1331ZM 1696 1261L 1697 1261L 1697 1259.83L 1695.85 1260.01L 1696 1261ZM 1696 1611L 1695.89 1611.99L 1697 1612.12L 1697 1611L 1696 1611ZM 1240 1561L 1239 1561L 1239 1561.9L 1239.89 1561.99L 1240 1561ZM 1260 1311L 1259.85 1310.01L 1259 1310.14L 1259 1311L 1260 1311ZM 1716 1241L 1717 1241L 1717 1239.83L 1715.85 1240.01L 1716 1241ZM 1716 1591L 1715.89 1591.99L 1717 1592.12L 1717 1591L 1716 1591ZM 1260 1541L 1259 1541L 1259 1541.9L 1259.89 1541.99L 1260 1541ZM 1280 1291L 1279.85 1290.01L 1279 1290.14L 1279 1291L 1280 1291ZM 1736 1221L 1737 1221L 1737 1219.83L 1735.85 1220.01L 1736 1221ZM 1736 1571L 1735.89 1571.99L 1737 1572.12L 1737 1571L 1736 1571ZM 1280 1521L 1279 1521L 1279 1521.9L 1279.89 1521.99L 1280 1521ZM 1300 1271L 1299.85 1270.01L 1299 1270.14L 1299 1271L 1300 1271ZM 1756 1201L 1757 1201L 1757 1199.83L 1755.85 1200.01L 1756 1201ZM 1756 1551L 1755.89 1551.99L 1757 1552.12L 1757 1551L 1756 1551ZM 1300 1501L 1299 1501L 1299 1501.9L 1299.89 1501.99L 1300 1501ZM 1320 1251L 1319.85 1250.01L 1319 1250.14L 1319 1251L 1320 1251ZM 1776 1181L 1777 1181L 1777 1179.83L 1775.85 1180.01L 1776 1181ZM 1776 1531L 1775.89 1531.99L 1777 1532.12L 1777 1531L 1776 1531ZM 1320 1481L 1319 1481L 1319 1481.9L 1319.89 1481.99L 1320 1481ZM 1340 1231L 1339.85 1230.01L 1339 1230.14L 1339 1231L 1340 1231ZM 1796 1161L 1797 1161L 1797 1159.83L 1795.85 1160.01L 1796 1161ZM 1796 1511L 1795.89 1511.99L 1797 1512.12L 1797 1511L 1796 1511ZM 1340 1461L 1339 1461L 1339 1461.9L 1339.89 1461.99L 1340 1461ZM 1360 1211L 1359.85 1210.01L 1359 1210.14L 1359 1211L 1360 1211ZM 1816 1141L 1817 1141L 1817 1139.83L 1815.85 1140.01L 1816 1141ZM 1816 1491L 1815.89 1491.99L 1817 1492.12L 1817 1491L 1816 1491ZM 1360 1441L 1359 1441L 1359 1441.9L 1359.89 1441.99L 1360 1441ZM 1380 1191L 1379.85 1190.01L 1379 1190.14L 1379 1191L 1380 1191ZM 1836 1121L 1837 1121L 1837 1119.83L 1835.85 1120.01L 1836 1121ZM 1836 1471L 1835.89 1471.99L 1837 1472.12L 1837 1471L 1836 1471ZM 1380 1421L 1379 1421L 1379 1421.9L 1379.89 1421.99L 1380 1421ZM 1400 1171L 1399.85 1170.01L 1399 1170.14L 1399 1171L 1400 1171ZM 1856 1101L 1857 1101L 1857 1099.83L 1855.85 1100.01L 1856 1101ZM 1856 1451L 1855.89 1451.99L 1857 1452.12L 1857 1451L 1856 1451ZM 1400 1401L 1399 1401L 1399 1401.9L 1399.89 1401.99L 1400 1401ZM 1420 1151L 1419.85 1150.01L 1419 1150.14L 1419 1151L 1420 1151ZM 1876 1081L 1877 1081L 1877 1079.83L 1875.85 1080.01L 1876 1081ZM 1876 1431L 1875.89 1431.99L 1877 1432.12L 1877 1431L 1876 1431ZM 1420 1381L 1419 1381L 1419 1381.9L 1419.89 1381.99L 1420 1381ZM 1440 1131L 1439.85 1130.01L 1439 1130.14L 1439 1131L 1440 1131ZM 1896 1061L 1897 1061L 1897 1059.83L 1895.85 1060.01L 1896 1061ZM 1896 1411L 1895.89 1411.99L 1897 1412.12L 1897 1411L 1896 1411ZM 1440 1361L 1439 1361L 1439 1361.9L 1439.89 1361.99L 1440 1361ZM 1460 1111L 1459.85 1110.01L 1459 1110.14L 1459 1111L 1460 1111ZM 1916 1041L 1917 1041L 1917 1039.83L 1915.85 1040.01L 1916 1041ZM 1916 1391L 1915.89 1391.99L 1917 1392.12L 1917 1391L 1916 1391ZM 1460 1341L 1459 1341L 1459 1341.9L 1459.89 1341.99L 1460 1341ZM 1480 1091L 1479.85 1090.01L 1479 1090.14L 1479 1091L 1480 1091ZM 1936 1021L 1937 1021L 1937 1019.83L 1935.85 1020.01L 1936 1021ZM 1936 1371L 1935.89 1371.99L 1937 1372.12L 1937 1371L 1936 1371ZM 1480 1321L 1479 1321L 1479 1321.9L 1479.89 1321.99L 1480 1321ZM 1500 1071L 1499.85 1070.01L 1499 1070.14L 1499 1071L 1500 1071ZM 1956 1001L 1957 1001L 1957 999.835L 1955.85 1000.01L 1956 1001ZM 1956 1351L 1955.89 1351.99L 1957 1352.12L 1957 1351L 1956 1351ZM 1500 1301L 1499 1301L 1499 1301.9L 1499.89 1301.99L 1500 1301ZM 1520 1051L 1519.85 1050.01L 1519 1050.14L 1519 1051L 1520 1051ZM 1976 981L 1977 981L 1977 979.835L 1975.85 980.012L 1976 981ZM 1976 1331L 1975.89 1331.99L 1977 1332.12L 1977 1331L 1976 1331ZM 1520 1281L 1519 1281L 1519 1281.9L 1519.89 1281.99L 1520 1281ZM 1540 1031L 1539.85 1030.01L 1539 1030.14L 1539 1031L 1540 1031ZM 1996 961L 1997 961L 1997 959.835L 1995.85 960.012L 1996 961ZM 1996 1311L 1995.89 1311.99L 1997 1312.12L 1997 1311L 1996 1311ZM 1540 1261L 1539 1261L 1539 1261.9L 1539.89 1261.99L 1540 1261ZM 1560 1011L 1559.85 1010.01L 1559 1010.14L 1559 1011L 1560 1011ZM 2016 941L 2017 941L 2017 939.835L 2015.85 940.012L 2016 941ZM 2016 1291L 2015.89 1291.99L 2017 1292.12L 2017 1291L 2016 1291ZM 1560 1241L 1559 1241L 1559 1241.9L 1559.89 1241.99L 1560 1241ZM 1580 991L 1579.85 990.012L 1579 990.142L 1579 991L 1580 991ZM 2036 921L 2037 921L 2037 919.835L 2035.85 920.012L 2036 921ZM 2036 1271L 2035.89 1271.99L 2037 1272.12L 2037 1271L 2036 1271ZM 1580 1221L 1579 1221L 1579 1221.9L 1579.89 1221.99L 1580 1221ZM 1600 971L 1599.85 970.012L 1599 970.142L 1599 971L 1600 971ZM 2056 901L 2057 901L 2057 899.835L 2055.85 900.012L 2056 901ZM 2056 1251L 2055.89 1251.99L 2057 1252.12L 2057 1251L 2056 1251ZM 1600 1201L 1599 1201L 1599 1201.9L 1599.89 1201.99L 1600 1201ZM 1620 951L 1619.85 950.012L 1619 950.142L 1619 951L 1620 951ZM 2076 881L 2077 881L 2077 879.835L 2075.85 880.012L 2076 881ZM 2076 1231L 2075.89 1231.99L 2077 1232.12L 2077 1231L 2076 1231ZM 1620 1181L 1619 1181L 1619 1181.9L 1619.89 1181.99L 1620 1181ZM 1640 931L 1639.85 930.012L 1639 930.142L 1639 931L 1640 931ZM 2096 861L 2097 861L 2097 859.835L 2095.85 860.012L 2096 861ZM 2096 1211L 2095.89 1211.99L 2097 1212.12L 2097 1211L 2096 1211ZM 1640 1161L 1639 1161L 1639 1161.9L 1639.89 1161.99L 1640 1161ZM 2503 390L 2502.85 389.012L 2502 389.142L 2502 390L 2503 390ZM 2959 320L 2960 320L 2960 318.835L 2958.85 319.012L 2959 320ZM 2959 670L 2958.89 670.994L 2960 671.116L 2960 670L 2959 670ZM 2503 620L 2502 620L 2502 620.896L 2502.89 620.994L 2503 620ZM 2523 370L 2522.85 369.012L 2522 369.142L 2522 370L 2523 370ZM 2979 300L 2980 300L 2980 298.835L 2978.85 299.012L 2979 300ZM 2979 650L 2978.89 650.994L 2980 651.116L 2980 650L 2979 650ZM 2523 600L 2522 600L 2522 600.896L 2522.89 600.994L 2523 600ZM 2543 350L 2542.85 349.012L 2542 349.142L 2542 350L 2543 350ZM 2999 280L 3000 280L 3000 278.835L 2998.85 279.012L 2999 280ZM 2999 630L 2998.89 630.994L 3000 631.116L 3000 630L 2999 630ZM 2543 580L 2542 580L 2542 580.896L 2542.89 580.994L 2543 580ZM 2563 330L 2562.85 329.012L 2562 329.142L 2562 330L 2563 330ZM 3019 260L 3020 260L 3020 258.835L 3018.85 259.012L 3019 260ZM 3019 610L 3018.89 610.994L 3020 611.116L 3020 610L 3019 610ZM 2563 560L 2562 560L 2562 560.896L 2562.89 560.994L 2563 560ZM 2583 310L 2582.85 309.012L 2582 309.142L 2582 310L 2583 310ZM 3039 240L 3040 240L 3040 238.835L 3038.85 239.012L 3039 240ZM 3039 590L 3038.89 590.994L 3040 591.116L 3040 590L 3039 590ZM 2583 540L 2582 540L 2582 540.896L 2582.89 540.994L 2583 540ZM 2603 290L 2602.85 289.012L 2602 289.142L 2602 290L 2603 290ZM 3059 220L 3060 220L 3060 218.835L 3058.85 219.012L 3059 220ZM 3059 570L 3058.89 570.994L 3060 571.116L 3060 570L 3059 570ZM 2603 520L 2602 520L 2602 520.896L 2602.89 520.994L 2603 520ZM 2623 270L 2622.85 269.012L 2622 269.142L 2622 270L 2623 270ZM 3079 200L 3080 200L 3080 198.835L 3078.85 199.012L 3079 200ZM 3079 550L 3078.89 550.994L 3080 551.116L 3080 550L 3079 550ZM 2623 500L 2622 500L 2622 500.896L 2622.89 500.994L 2623 500ZM 2643 250L 2642.85 249.012L 2642 249.142L 2642 250L 2643 250ZM 3099 180L 3100 180L 3100 178.835L 3098.85 179.012L 3099 180ZM 3099 530L 3098.89 530.994L 3100 531.116L 3100 530L 3099 530ZM 2643 480L 2642 480L 2642 480.896L 2642.89 480.994L 2643 480ZM 2663 230L 2662.85 229.012L 2662 229.142L 2662 230L 2663 230ZM 3119 160L 3120 160L 3120 158.835L 3118.85 159.012L 3119 160ZM 3119 510L 3118.89 510.994L 3120 511.116L 3120 510L 3119 510ZM 2663 460L 2662 460L 2662 460.896L 2662.89 460.994L 2663 460ZM 2683 210L 2682.85 209.012L 2682 209.142L 2682 210L 2683 210ZM 3139 140L 3140 140L 3140 138.835L 3138.85 139.012L 3139 140ZM 3139 490L 3138.89 490.994L 3140 491.116L 3140 490L 3139 490ZM 2683 440L 2682 440L 2682 440.896L 2682.89 440.994L 2683 440ZM 2703 190L 2702.85 189.012L 2702 189.142L 2702 190L 2703 190ZM 3159 120L 3160 120L 3160 118.835L 3158.85 119.012L 3159 120ZM 3159 470L 3158.89 470.994L 3160 471.116L 3160 470L 3159 470ZM 2703 420L 2702 420L 2702 420.896L 2702.89 420.994L 2703 420ZM 2723 170L 2722.85 169.012L 2722 169.142L 2722 170L 2723 170ZM 3179 100L 3180 100L 3180 98.8348L 3178.85 99.0116L 3179 100ZM 3179 450L 3178.89 450.994L 3180 451.116L 3180 450L 3179 450ZM 2723 400L 2722 400L 2722 400.896L 2722.89 400.994L 2723 400ZM 2743 150L 2742.85 149.012L 2742 149.142L 2742 150L 2743 150ZM 3199 80L 3200 80L 3200 78.8348L 3198.85 79.0116L 3199 80ZM 3199 430L 3198.89 430.994L 3200 431.116L 3200 430L 3199 430ZM 2743 380L 2742 380L 2742 380.896L 2742.89 380.994L 2743 380ZM 2763 130L 2762.85 129.012L 2762 129.142L 2762 130L 2763 130ZM 3219 60L 3220 60L 3220 58.8348L 3218.85 59.0116L 3219 60ZM 3219 410L 3218.89 410.994L 3220 411.116L 3220 410L 3219 410ZM 2763 360L 2762 360L 2762 360.896L 2762.89 360.994L 2763 360ZM 2783 110L 2782.85 109.012L 2782 109.142L 2782 110L 2783 110ZM 3239 40L 3240 40L 3240 38.8348L 3238.85 39.0116L 3239 40ZM 3239 390L 3238.89 390.994L 3240 391.116L 3240 390L 3239 390ZM 2783 340L 2782 340L 2782 340.896L 2782.89 340.994L 2783 340ZM 2803 90L 2802.85 89.0116L 2802 89.1418L 2802 90L 2803 90ZM 3259 20L 3260 20L 3260 18.8348L 3258.85 19.0116L 3259 20ZM 3259 370L 3258.89 370.994L 3260 371.116L 3260 370L 3259 370ZM 2803 320L 2802 320L 2802 320.896L 2802.89 320.994L 2803 320ZM 2823 70L 2822.85 69.0116L 2822 69.1418L 2822 70L 2823 70ZM 3279 0L 3280 0L 3280 -1.16522L 3278.85 -0.988422L 3279 0ZM 3279 350L 3278.89 350.994L 3280 351.116L 3280 350L 3279 350ZM 2823 300L 2822 300L 2822 300.896L 2822.89 300.994L 2823 300ZM 0.151731 2571.99L 456.152 2501.99L 455.848 2500.01L -0.151731 2570.01L 0.151731 2571.99ZM 455 2501L 455 2851L 457 2851L 457 2501L 455 2501ZM 456.109 2850.01L 0.108996 2800.01L -0.108996 2801.99L 455.891 2851.99L 456.109 2850.01ZM 1 2801L 1 2571L -1 2571L -1 2801L 1 2801ZM 20.1517 2551.99L 476.152 2481.99L 475.848 2480.01L 19.8483 2550.01L 20.1517 2551.99ZM 475 2481L 475 2831L 477 2831L 477 2481L 475 2481ZM 476.109 2830.01L 20.109 2780.01L 19.891 2781.99L 475.891 2831.99L 476.109 2830.01ZM 21 2781L 21 2551L 19 2551L 19 2781L 21 2781ZM 40.1517 2531.99L 496.152 2461.99L 495.848 2460.01L 39.8483 2530.01L 40.1517 2531.99ZM 495 2461L 495 2811L 497 2811L 497 2461L 495 2461ZM 496.109 2810.01L 40.109 2760.01L 39.891 2761.99L 495.891 2811.99L 496.109 2810.01ZM 41 2761L 41 2531L 39 2531L 39 2761L 41 2761ZM 60.1517 2511.99L 516.152 2441.99L 515.848 2440.01L 59.8483 2510.01L 60.1517 2511.99ZM 515 2441L 515 2791L 517 2791L 517 2441L 515 2441ZM 516.109 2790.01L 60.109 2740.01L 59.891 2741.99L 515.891 2791.99L 516.109 2790.01ZM 61 2741L 61 2511L 59 2511L 59 2741L 61 2741ZM 80.1517 2491.99L 536.152 2421.99L 535.848 2420.01L 79.8483 2490.01L 80.1517 2491.99ZM 535 2421L 535 2771L 537 2771L 537 2421L 535 2421ZM 536.109 2770.01L 80.109 2720.01L 79.891 2721.99L 535.891 2771.99L 536.109 2770.01ZM 81 2721L 81 2491L 79 2491L 79 2721L 81 2721ZM 100.152 2471.99L 556.152 2401.99L 555.848 2400.01L 99.8483 2470.01L 100.152 2471.99ZM 555 2401L 555 2751L 557 2751L 557 2401L 555 2401ZM 556.109 2750.01L 100.109 2700.01L 99.891 2701.99L 555.891 2751.99L 556.109 2750.01ZM 101 2701L 101 2471L 99 2471L 99 2701L 101 2701ZM 120.152 2451.99L 576.152 2381.99L 575.848 2380.01L 119.848 2450.01L 120.152 2451.99ZM 575 2381L 575 2731L 577 2731L 577 2381L 575 2381ZM 576.109 2730.01L 120.109 2680.01L 119.891 2681.99L 575.891 2731.99L 576.109 2730.01ZM 121 2681L 121 2451L 119 2451L 119 2681L 121 2681ZM 140.152 2431.99L 596.152 2361.99L 595.848 2360.01L 139.848 2430.01L 140.152 2431.99ZM 595 2361L 595 2711L 597 2711L 597 2361L 595 2361ZM 596.109 2710.01L 140.109 2660.01L 139.891 2661.99L 595.891 2711.99L 596.109 2710.01ZM 141 2661L 141 2431L 139 2431L 139 2661L 141 2661ZM 160.152 2411.99L 616.152 2341.99L 615.848 2340.01L 159.848 2410.01L 160.152 2411.99ZM 615 2341L 615 2691L 617 2691L 617 2341L 615 2341ZM 616.109 2690.01L 160.109 2640.01L 159.891 2641.99L 615.891 2691.99L 616.109 2690.01ZM 161 2641L 161 2411L 159 2411L 159 2641L 161 2641ZM 180.152 2391.99L 636.152 2321.99L 635.848 2320.01L 179.848 2390.01L 180.152 2391.99ZM 635 2321L 635 2671L 637 2671L 637 2321L 635 2321ZM 636.109 2670.01L 180.109 2620.01L 179.891 2621.99L 635.891 2671.99L 636.109 2670.01ZM 181 2621L 181 2391L 179 2391L 179 2621L 181 2621ZM 200.152 2371.99L 656.152 2301.99L 655.848 2300.01L 199.848 2370.01L 200.152 2371.99ZM 655 2301L 655 2651L 657 2651L 657 2301L 655 2301ZM 656.109 2650.01L 200.109 2600.01L 199.891 2601.99L 655.891 2651.99L 656.109 2650.01ZM 201 2601L 201 2371L 199 2371L 199 2601L 201 2601ZM 220.152 2351.99L 676.152 2281.99L 675.848 2280.01L 219.848 2350.01L 220.152 2351.99ZM 675 2281L 675 2631L 677 2631L 677 2281L 675 2281ZM 676.109 2630.01L 220.109 2580.01L 219.891 2581.99L 675.891 2631.99L 676.109 2630.01ZM 221 2581L 221 2351L 219 2351L 219 2581L 221 2581ZM 240.152 2331.99L 696.152 2261.99L 695.848 2260.01L 239.848 2330.01L 240.152 2331.99ZM 695 2261L 695 2611L 697 2611L 697 2261L 695 2261ZM 696.109 2610.01L 240.109 2560.01L 239.891 2561.99L 695.891 2611.99L 696.109 2610.01ZM 241 2561L 241 2331L 239 2331L 239 2561L 241 2561ZM 260.152 2311.99L 716.152 2241.99L 715.848 2240.01L 259.848 2310.01L 260.152 2311.99ZM 715 2241L 715 2591L 717 2591L 717 2241L 715 2241ZM 716.109 2590.01L 260.109 2540.01L 259.891 2541.99L 715.891 2591.99L 716.109 2590.01ZM 261 2541L 261 2311L 259 2311L 259 2541L 261 2541ZM 280.152 2291.99L 736.152 2221.99L 735.848 2220.01L 279.848 2290.01L 280.152 2291.99ZM 735 2221L 735 2571L 737 2571L 737 2221L 735 2221ZM 736.109 2570.01L 280.109 2520.01L 279.891 2521.99L 735.891 2571.99L 736.109 2570.01ZM 281 2521L 281 2291L 279 2291L 279 2521L 281 2521ZM 300.152 2271.99L 756.152 2201.99L 755.848 2200.01L 299.848 2270.01L 300.152 2271.99ZM 755 2201L 755 2551L 757 2551L 757 2201L 755 2201ZM 756.109 2550.01L 300.109 2500.01L 299.891 2501.99L 755.891 2551.99L 756.109 2550.01ZM 301 2501L 301 2271L 299 2271L 299 2501L 301 2501ZM 320.152 2251.99L 776.152 2181.99L 775.848 2180.01L 319.848 2250.01L 320.152 2251.99ZM 775 2181L 775 2531L 777 2531L 777 2181L 775 2181ZM 776.109 2530.01L 320.109 2480.01L 319.891 2481.99L 775.891 2531.99L 776.109 2530.01ZM 321 2481L 321 2251L 319 2251L 319 2481L 321 2481ZM 340.152 2231.99L 796.152 2161.99L 795.848 2160.01L 339.848 2230.01L 340.152 2231.99ZM 795 2161L 795 2511L 797 2511L 797 2161L 795 2161ZM 796.109 2510.01L 340.109 2460.01L 339.891 2461.99L 795.891 2511.99L 796.109 2510.01ZM 341 2461L 341 2231L 339 2231L 339 2461L 341 2461ZM 360.152 2211.99L 816.152 2141.99L 815.848 2140.01L 359.848 2210.01L 360.152 2211.99ZM 815 2141L 815 2491L 817 2491L 817 2141L 815 2141ZM 816.109 2490.01L 360.109 2440.01L 359.891 2441.99L 815.891 2491.99L 816.109 2490.01ZM 361 2441L 361 2211L 359 2211L 359 2441L 361 2441ZM 380.152 2191.99L 836.152 2121.99L 835.848 2120.01L 379.848 2190.01L 380.152 2191.99ZM 835 2121L 835 2471L 837 2471L 837 2121L 835 2121ZM 836.109 2470.01L 380.109 2420.01L 379.891 2421.99L 835.891 2471.99L 836.109 2470.01ZM 381 2421L 381 2191L 379 2191L 379 2421L 381 2421ZM 400.152 2171.99L 856.152 2101.99L 855.848 2100.01L 399.848 2170.01L 400.152 2171.99ZM 855 2101L 855 2451L 857 2451L 857 2101L 855 2101ZM 856.109 2450.01L 400.109 2400.01L 399.891 2401.99L 855.891 2451.99L 856.109 2450.01ZM 401 2401L 401 2171L 399 2171L 399 2401L 401 2401ZM 420.152 2151.99L 876.152 2081.99L 875.848 2080.01L 419.848 2150.01L 420.152 2151.99ZM 875 2081L 875 2431L 877 2431L 877 2081L 875 2081ZM 876.109 2430.01L 420.109 2380.01L 419.891 2381.99L 875.891 2431.99L 876.109 2430.01ZM 421 2381L 421 2151L 419 2151L 419 2381L 421 2381ZM 440.152 2131.99L 896.152 2061.99L 895.848 2060.01L 439.848 2130.01L 440.152 2131.99ZM 895 2061L 895 2411L 897 2411L 897 2061L 895 2061ZM 896.109 2410.01L 440.109 2360.01L 439.891 2361.99L 895.891 2411.99L 896.109 2410.01ZM 441 2361L 441 2131L 439 2131L 439 2361L 441 2361ZM 460.152 2111.99L 916.152 2041.99L 915.848 2040.01L 459.848 2110.01L 460.152 2111.99ZM 915 2041L 915 2391L 917 2391L 917 2041L 915 2041ZM 916.109 2390.01L 460.109 2340.01L 459.891 2341.99L 915.891 2391.99L 916.109 2390.01ZM 461 2341L 461 2111L 459 2111L 459 2341L 461 2341ZM 480.152 2091.99L 936.152 2021.99L 935.848 2020.01L 479.848 2090.01L 480.152 2091.99ZM 935 2021L 935 2371L 937 2371L 937 2021L 935 2021ZM 936.109 2370.01L 480.109 2320.01L 479.891 2321.99L 935.891 2371.99L 936.109 2370.01ZM 481 2321L 481 2091L 479 2091L 479 2321L 481 2321ZM 500.152 2071.99L 956.152 2001.99L 955.848 2000.01L 499.848 2070.01L 500.152 2071.99ZM 955 2001L 955 2351L 957 2351L 957 2001L 955 2001ZM 956.109 2350.01L 500.109 2300.01L 499.891 2301.99L 955.891 2351.99L 956.109 2350.01ZM 501 2301L 501 2071L 499 2071L 499 2301L 501 2301ZM 520.152 2051.99L 976.152 1981.99L 975.848 1980.01L 519.848 2050.01L 520.152 2051.99ZM 975 1981L 975 2331L 977 2331L 977 1981L 975 1981ZM 976.109 2330.01L 520.109 2280.01L 519.891 2281.99L 975.891 2331.99L 976.109 2330.01ZM 521 2281L 521 2051L 519 2051L 519 2281L 521 2281ZM 540.152 2031.99L 996.152 1961.99L 995.848 1960.01L 539.848 2030.01L 540.152 2031.99ZM 995 1961L 995 2311L 997 2311L 997 1961L 995 1961ZM 996.109 2310.01L 540.109 2260.01L 539.891 2261.99L 995.891 2311.99L 996.109 2310.01ZM 541 2261L 541 2031L 539 2031L 539 2261L 541 2261ZM 560.152 2011.99L 1016.15 1941.99L 1015.85 1940.01L 559.848 2010.01L 560.152 2011.99ZM 1015 1941L 1015 2291L 1017 2291L 1017 1941L 1015 1941ZM 1016.11 2290.01L 560.109 2240.01L 559.891 2241.99L 1015.89 2291.99L 1016.11 2290.01ZM 561 2241L 561 2011L 559 2011L 559 2241L 561 2241ZM 580.152 1991.99L 1036.15 1921.99L 1035.85 1920.01L 579.848 1990.01L 580.152 1991.99ZM 1035 1921L 1035 2271L 1037 2271L 1037 1921L 1035 1921ZM 1036.11 2270.01L 580.109 2220.01L 579.891 2221.99L 1035.89 2271.99L 1036.11 2270.01ZM 581 2221L 581 1991L 579 1991L 579 2221L 581 2221ZM 600.152 1971.99L 1056.15 1901.99L 1055.85 1900.01L 599.848 1970.01L 600.152 1971.99ZM 1055 1901L 1055 2251L 1057 2251L 1057 1901L 1055 1901ZM 1056.11 2250.01L 600.109 2200.01L 599.891 2201.99L 1055.89 2251.99L 1056.11 2250.01ZM 601 2201L 601 1971L 599 1971L 599 2201L 601 2201ZM 620.152 1951.99L 1076.15 1881.99L 1075.85 1880.01L 619.848 1950.01L 620.152 1951.99ZM 1075 1881L 1075 2231L 1077 2231L 1077 1881L 1075 1881ZM 1076.11 2230.01L 620.109 2180.01L 619.891 2181.99L 1075.89 2231.99L 1076.11 2230.01ZM 621 2181L 621 1951L 619 1951L 619 2181L 621 2181ZM 640.152 1931.99L 1096.15 1861.99L 1095.85 1860.01L 639.848 1930.01L 640.152 1931.99ZM 1095 1861L 1095 2211L 1097 2211L 1097 1861L 1095 1861ZM 1096.11 2210.01L 640.109 2160.01L 639.891 2161.99L 1095.89 2211.99L 1096.11 2210.01ZM 641 2161L 641 1931L 639 1931L 639 2161L 641 2161ZM 660.152 1911.99L 1116.15 1841.99L 1115.85 1840.01L 659.848 1910.01L 660.152 1911.99ZM 1115 1841L 1115 2191L 1117 2191L 1117 1841L 1115 1841ZM 1116.11 2190.01L 660.109 2140.01L 659.891 2141.99L 1115.89 2191.99L 1116.11 2190.01ZM 661 2141L 661 1911L 659 1911L 659 2141L 661 2141ZM 680.152 1891.99L 1136.15 1821.99L 1135.85 1820.01L 679.848 1890.01L 680.152 1891.99ZM 1135 1821L 1135 2171L 1137 2171L 1137 1821L 1135 1821ZM 1136.11 2170.01L 680.109 2120.01L 679.891 2121.99L 1135.89 2171.99L 1136.11 2170.01ZM 681 2121L 681 1891L 679 1891L 679 2121L 681 2121ZM 700.152 1871.99L 1156.15 1801.99L 1155.85 1800.01L 699.848 1870.01L 700.152 1871.99ZM 1155 1801L 1155 2151L 1157 2151L 1157 1801L 1155 1801ZM 1156.11 2150.01L 700.109 2100.01L 699.891 2101.99L 1155.89 2151.99L 1156.11 2150.01ZM 701 2101L 701 1871L 699 1871L 699 2101L 701 2101ZM 720.152 1851.99L 1176.15 1781.99L 1175.85 1780.01L 719.848 1850.01L 720.152 1851.99ZM 1175 1781L 1175 2131L 1177 2131L 1177 1781L 1175 1781ZM 1176.11 2130.01L 720.109 2080.01L 719.891 2081.99L 1175.89 2131.99L 1176.11 2130.01ZM 721 2081L 721 1851L 719 1851L 719 2081L 721 2081ZM 740.152 1831.99L 1196.15 1761.99L 1195.85 1760.01L 739.848 1830.01L 740.152 1831.99ZM 1195 1761L 1195 2111L 1197 2111L 1197 1761L 1195 1761ZM 1196.11 2110.01L 740.109 2060.01L 739.891 2061.99L 1195.89 2111.99L 1196.11 2110.01ZM 741 2061L 741 1831L 739 1831L 739 2061L 741 2061ZM 760.152 1811.99L 1216.15 1741.99L 1215.85 1740.01L 759.848 1810.01L 760.152 1811.99ZM 1215 1741L 1215 2091L 1217 2091L 1217 1741L 1215 1741ZM 1216.11 2090.01L 760.109 2040.01L 759.891 2041.99L 1215.89 2091.99L 1216.11 2090.01ZM 761 2041L 761 1811L 759 1811L 759 2041L 761 2041ZM 780.152 1791.99L 1236.15 1721.99L 1235.85 1720.01L 779.848 1790.01L 780.152 1791.99ZM 1235 1721L 1235 2071L 1237 2071L 1237 1721L 1235 1721ZM 1236.11 2070.01L 780.109 2020.01L 779.891 2021.99L 1235.89 2071.99L 1236.11 2070.01ZM 781 2021L 781 1791L 779 1791L 779 2021L 781 2021ZM 800.152 1771.99L 1256.15 1701.99L 1255.85 1700.01L 799.848 1770.01L 800.152 1771.99ZM 1255 1701L 1255 2051L 1257 2051L 1257 1701L 1255 1701ZM 1256.11 2050.01L 800.109 2000.01L 799.891 2001.99L 1255.89 2051.99L 1256.11 2050.01ZM 801 2001L 801 1771L 799 1771L 799 2001L 801 2001ZM 820.152 1751.99L 1276.15 1681.99L 1275.85 1680.01L 819.848 1750.01L 820.152 1751.99ZM 1275 1681L 1275 2031L 1277 2031L 1277 1681L 1275 1681ZM 1276.11 2030.01L 820.109 1980.01L 819.891 1981.99L 1275.89 2031.99L 1276.11 2030.01ZM 821 1981L 821 1751L 819 1751L 819 1981L 821 1981ZM 840.152 1731.99L 1296.15 1661.99L 1295.85 1660.01L 839.848 1730.01L 840.152 1731.99ZM 1295 1661L 1295 2011L 1297 2011L 1297 1661L 1295 1661ZM 1296.11 2010.01L 840.109 1960.01L 839.891 1961.99L 1295.89 2011.99L 1296.11 2010.01ZM 841 1961L 841 1731L 839 1731L 839 1961L 841 1961ZM 860.152 1711.99L 1316.15 1641.99L 1315.85 1640.01L 859.848 1710.01L 860.152 1711.99ZM 1315 1641L 1315 1991L 1317 1991L 1317 1641L 1315 1641ZM 1316.11 1990.01L 860.109 1940.01L 859.891 1941.99L 1315.89 1991.99L 1316.11 1990.01ZM 861 1941L 861 1711L 859 1711L 859 1941L 861 1941ZM 880.152 1691.99L 1336.15 1621.99L 1335.85 1620.01L 879.848 1690.01L 880.152 1691.99ZM 1335 1621L 1335 1971L 1337 1971L 1337 1621L 1335 1621ZM 1336.11 1970.01L 880.109 1920.01L 879.891 1921.99L 1335.89 1971.99L 1336.11 1970.01ZM 881 1921L 881 1691L 879 1691L 879 1921L 881 1921ZM 900.152 1671.99L 1356.15 1601.99L 1355.85 1600.01L 899.848 1670.01L 900.152 1671.99ZM 1355 1601L 1355 1951L 1357 1951L 1357 1601L 1355 1601ZM 1356.11 1950.01L 900.109 1900.01L 899.891 1901.99L 1355.89 1951.99L 1356.11 1950.01ZM 901 1901L 901 1671L 899 1671L 899 1901L 901 1901ZM 920.152 1651.99L 1376.15 1581.99L 1375.85 1580.01L 919.848 1650.01L 920.152 1651.99ZM 1375 1581L 1375 1931L 1377 1931L 1377 1581L 1375 1581ZM 1376.11 1930.01L 920.109 1880.01L 919.891 1881.99L 1375.89 1931.99L 1376.11 1930.01ZM 921 1881L 921 1651L 919 1651L 919 1881L 921 1881ZM 940.152 1631.99L 1396.15 1561.99L 1395.85 1560.01L 939.848 1630.01L 940.152 1631.99ZM 1395 1561L 1395 1911L 1397 1911L 1397 1561L 1395 1561ZM 1396.11 1910.01L 940.109 1860.01L 939.891 1861.99L 1395.89 1911.99L 1396.11 1910.01ZM 941 1861L 941 1631L 939 1631L 939 1861L 941 1861ZM 960.152 1611.99L 1416.15 1541.99L 1415.85 1540.01L 959.848 1610.01L 960.152 1611.99ZM 1415 1541L 1415 1891L 1417 1891L 1417 1541L 1415 1541ZM 1416.11 1890.01L 960.109 1840.01L 959.891 1841.99L 1415.89 1891.99L 1416.11 1890.01ZM 961 1841L 961 1611L 959 1611L 959 1841L 961 1841ZM 980.152 1591.99L 1436.15 1521.99L 1435.85 1520.01L 979.848 1590.01L 980.152 1591.99ZM 1435 1521L 1435 1871L 1437 1871L 1437 1521L 1435 1521ZM 1436.11 1870.01L 980.109 1820.01L 979.891 1821.99L 1435.89 1871.99L 1436.11 1870.01ZM 981 1821L 981 1591L 979 1591L 979 1821L 981 1821ZM 1000.15 1571.99L 1456.15 1501.99L 1455.85 1500.01L 999.848 1570.01L 1000.15 1571.99ZM 1455 1501L 1455 1851L 1457 1851L 1457 1501L 1455 1501ZM 1456.11 1850.01L 1000.11 1800.01L 999.891 1801.99L 1455.89 1851.99L 1456.11 1850.01ZM 1001 1801L 1001 1571L 999 1571L 999 1801L 1001 1801ZM 1020.15 1551.99L 1476.15 1481.99L 1475.85 1480.01L 1019.85 1550.01L 1020.15 1551.99ZM 1475 1481L 1475 1831L 1477 1831L 1477 1481L 1475 1481ZM 1476.11 1830.01L 1020.11 1780.01L 1019.89 1781.99L 1475.89 1831.99L 1476.11 1830.01ZM 1021 1781L 1021 1551L 1019 1551L 1019 1781L 1021 1781ZM 1040.15 1531.99L 1496.15 1461.99L 1495.85 1460.01L 1039.85 1530.01L 1040.15 1531.99ZM 1495 1461L 1495 1811L 1497 1811L 1497 1461L 1495 1461ZM 1496.11 1810.01L 1040.11 1760.01L 1039.89 1761.99L 1495.89 1811.99L 1496.11 1810.01ZM 1041 1761L 1041 1531L 1039 1531L 1039 1761L 1041 1761ZM 1060.15 1511.99L 1516.15 1441.99L 1515.85 1440.01L 1059.85 1510.01L 1060.15 1511.99ZM 1515 1441L 1515 1791L 1517 1791L 1517 1441L 1515 1441ZM 1516.11 1790.01L 1060.11 1740.01L 1059.89 1741.99L 1515.89 1791.99L 1516.11 1790.01ZM 1061 1741L 1061 1511L 1059 1511L 1059 1741L 1061 1741ZM 1080.15 1491.99L 1536.15 1421.99L 1535.85 1420.01L 1079.85 1490.01L 1080.15 1491.99ZM 1535 1421L 1535 1771L 1537 1771L 1537 1421L 1535 1421ZM 1536.11 1770.01L 1080.11 1720.01L 1079.89 1721.99L 1535.89 1771.99L 1536.11 1770.01ZM 1081 1721L 1081 1491L 1079 1491L 1079 1721L 1081 1721ZM 1100.15 1471.99L 1556.15 1401.99L 1555.85 1400.01L 1099.85 1470.01L 1100.15 1471.99ZM 1555 1401L 1555 1751L 1557 1751L 1557 1401L 1555 1401ZM 1556.11 1750.01L 1100.11 1700.01L 1099.89 1701.99L 1555.89 1751.99L 1556.11 1750.01ZM 1101 1701L 1101 1471L 1099 1471L 1099 1701L 1101 1701ZM 1120.15 1451.99L 1576.15 1381.99L 1575.85 1380.01L 1119.85 1450.01L 1120.15 1451.99ZM 1575 1381L 1575 1731L 1577 1731L 1577 1381L 1575 1381ZM 1576.11 1730.01L 1120.11 1680.01L 1119.89 1681.99L 1575.89 1731.99L 1576.11 1730.01ZM 1121 1681L 1121 1451L 1119 1451L 1119 1681L 1121 1681ZM 1140.15 1431.99L 1596.15 1361.99L 1595.85 1360.01L 1139.85 1430.01L 1140.15 1431.99ZM 1595 1361L 1595 1711L 1597 1711L 1597 1361L 1595 1361ZM 1596.11 1710.01L 1140.11 1660.01L 1139.89 1661.99L 1595.89 1711.99L 1596.11 1710.01ZM 1141 1661L 1141 1431L 1139 1431L 1139 1661L 1141 1661ZM 1160.15 1411.99L 1616.15 1341.99L 1615.85 1340.01L 1159.85 1410.01L 1160.15 1411.99ZM 1615 1341L 1615 1691L 1617 1691L 1617 1341L 1615 1341ZM 1616.11 1690.01L 1160.11 1640.01L 1159.89 1641.99L 1615.89 1691.99L 1616.11 1690.01ZM 1161 1641L 1161 1411L 1159 1411L 1159 1641L 1161 1641ZM 1180.15 1391.99L 1636.15 1321.99L 1635.85 1320.01L 1179.85 1390.01L 1180.15 1391.99ZM 1635 1321L 1635 1671L 1637 1671L 1637 1321L 1635 1321ZM 1636.11 1670.01L 1180.11 1620.01L 1179.89 1621.99L 1635.89 1671.99L 1636.11 1670.01ZM 1181 1621L 1181 1391L 1179 1391L 1179 1621L 1181 1621ZM 1200.15 1371.99L 1656.15 1301.99L 1655.85 1300.01L 1199.85 1370.01L 1200.15 1371.99ZM 1655 1301L 1655 1651L 1657 1651L 1657 1301L 1655 1301ZM 1656.11 1650.01L 1200.11 1600.01L 1199.89 1601.99L 1655.89 1651.99L 1656.11 1650.01ZM 1201 1601L 1201 1371L 1199 1371L 1199 1601L 1201 1601ZM 1220.15 1351.99L 1676.15 1281.99L 1675.85 1280.01L 1219.85 1350.01L 1220.15 1351.99ZM 1675 1281L 1675 1631L 1677 1631L 1677 1281L 1675 1281ZM 1676.11 1630.01L 1220.11 1580.01L 1219.89 1581.99L 1675.89 1631.99L 1676.11 1630.01ZM 1221 1581L 1221 1351L 1219 1351L 1219 1581L 1221 1581ZM 1240.15 1331.99L 1696.15 1261.99L 1695.85 1260.01L 1239.85 1330.01L 1240.15 1331.99ZM 1695 1261L 1695 1611L 1697 1611L 1697 1261L 1695 1261ZM 1696.11 1610.01L 1240.11 1560.01L 1239.89 1561.99L 1695.89 1611.99L 1696.11 1610.01ZM 1241 1561L 1241 1331L 1239 1331L 1239 1561L 1241 1561ZM 1260.15 1311.99L 1716.15 1241.99L 1715.85 1240.01L 1259.85 1310.01L 1260.15 1311.99ZM 1715 1241L 1715 1591L 1717 1591L 1717 1241L 1715 1241ZM 1716.11 1590.01L 1260.11 1540.01L 1259.89 1541.99L 1715.89 1591.99L 1716.11 1590.01ZM 1261 1541L 1261 1311L 1259 1311L 1259 1541L 1261 1541ZM 1280.15 1291.99L 1736.15 1221.99L 1735.85 1220.01L 1279.85 1290.01L 1280.15 1291.99ZM 1735 1221L 1735 1571L 1737 1571L 1737 1221L 1735 1221ZM 1736.11 1570.01L 1280.11 1520.01L 1279.89 1521.99L 1735.89 1571.99L 1736.11 1570.01ZM 1281 1521L 1281 1291L 1279 1291L 1279 1521L 1281 1521ZM 1300.15 1271.99L 1756.15 1201.99L 1755.85 1200.01L 1299.85 1270.01L 1300.15 1271.99ZM 1755 1201L 1755 1551L 1757 1551L 1757 1201L 1755 1201ZM 1756.11 1550.01L 1300.11 1500.01L 1299.89 1501.99L 1755.89 1551.99L 1756.11 1550.01ZM 1301 1501L 1301 1271L 1299 1271L 1299 1501L 1301 1501ZM 1320.15 1251.99L 1776.15 1181.99L 1775.85 1180.01L 1319.85 1250.01L 1320.15 1251.99ZM 1775 1181L 1775 1531L 1777 1531L 1777 1181L 1775 1181ZM 1776.11 1530.01L 1320.11 1480.01L 1319.89 1481.99L 1775.89 1531.99L 1776.11 1530.01ZM 1321 1481L 1321 1251L 1319 1251L 1319 1481L 1321 1481ZM 1340.15 1231.99L 1796.15 1161.99L 1795.85 1160.01L 1339.85 1230.01L 1340.15 1231.99ZM 1795 1161L 1795 1511L 1797 1511L 1797 1161L 1795 1161ZM 1796.11 1510.01L 1340.11 1460.01L 1339.89 1461.99L 1795.89 1511.99L 1796.11 1510.01ZM 1341 1461L 1341 1231L 1339 1231L 1339 1461L 1341 1461ZM 1360.15 1211.99L 1816.15 1141.99L 1815.85 1140.01L 1359.85 1210.01L 1360.15 1211.99ZM 1815 1141L 1815 1491L 1817 1491L 1817 1141L 1815 1141ZM 1816.11 1490.01L 1360.11 1440.01L 1359.89 1441.99L 1815.89 1491.99L 1816.11 1490.01ZM 1361 1441L 1361 1211L 1359 1211L 1359 1441L 1361 1441ZM 1380.15 1191.99L 1836.15 1121.99L 1835.85 1120.01L 1379.85 1190.01L 1380.15 1191.99ZM 1835 1121L 1835 1471L 1837 1471L 1837 1121L 1835 1121ZM 1836.11 1470.01L 1380.11 1420.01L 1379.89 1421.99L 1835.89 1471.99L 1836.11 1470.01ZM 1381 1421L 1381 1191L 1379 1191L 1379 1421L 1381 1421ZM 1400.15 1171.99L 1856.15 1101.99L 1855.85 1100.01L 1399.85 1170.01L 1400.15 1171.99ZM 1855 1101L 1855 1451L 1857 1451L 1857 1101L 1855 1101ZM 1856.11 1450.01L 1400.11 1400.01L 1399.89 1401.99L 1855.89 1451.99L 1856.11 1450.01ZM 1401 1401L 1401 1171L 1399 1171L 1399 1401L 1401 1401ZM 1420.15 1151.99L 1876.15 1081.99L 1875.85 1080.01L 1419.85 1150.01L 1420.15 1151.99ZM 1875 1081L 1875 1431L 1877 1431L 1877 1081L 1875 1081ZM 1876.11 1430.01L 1420.11 1380.01L 1419.89 1381.99L 1875.89 1431.99L 1876.11 1430.01ZM 1421 1381L 1421 1151L 1419 1151L 1419 1381L 1421 1381ZM 1440.15 1131.99L 1896.15 1061.99L 1895.85 1060.01L 1439.85 1130.01L 1440.15 1131.99ZM 1895 1061L 1895 1411L 1897 1411L 1897 1061L 1895 1061ZM 1896.11 1410.01L 1440.11 1360.01L 1439.89 1361.99L 1895.89 1411.99L 1896.11 1410.01ZM 1441 1361L 1441 1131L 1439 1131L 1439 1361L 1441 1361ZM 1460.15 1111.99L 1916.15 1041.99L 1915.85 1040.01L 1459.85 1110.01L 1460.15 1111.99ZM 1915 1041L 1915 1391L 1917 1391L 1917 1041L 1915 1041ZM 1916.11 1390.01L 1460.11 1340.01L 1459.89 1341.99L 1915.89 1391.99L 1916.11 1390.01ZM 1461 1341L 1461 1111L 1459 1111L 1459 1341L 1461 1341ZM 1480.15 1091.99L 1936.15 1021.99L 1935.85 1020.01L 1479.85 1090.01L 1480.15 1091.99ZM 1935 1021L 1935 1371L 1937 1371L 1937 1021L 1935 1021ZM 1936.11 1370.01L 1480.11 1320.01L 1479.89 1321.99L 1935.89 1371.99L 1936.11 1370.01ZM 1481 1321L 1481 1091L 1479 1091L 1479 1321L 1481 1321ZM 1500.15 1071.99L 1956.15 1001.99L 1955.85 1000.01L 1499.85 1070.01L 1500.15 1071.99ZM 1955 1001L 1955 1351L 1957 1351L 1957 1001L 1955 1001ZM 1956.11 1350.01L 1500.11 1300.01L 1499.89 1301.99L 1955.89 1351.99L 1956.11 1350.01ZM 1501 1301L 1501 1071L 1499 1071L 1499 1301L 1501 1301ZM 1520.15 1051.99L 1976.15 981.988L 1975.85 980.012L 1519.85 1050.01L 1520.15 1051.99ZM 1975 981L 1975 1331L 1977 1331L 1977 981L 1975 981ZM 1976.11 1330.01L 1520.11 1280.01L 1519.89 1281.99L 1975.89 1331.99L 1976.11 1330.01ZM 1521 1281L 1521 1051L 1519 1051L 1519 1281L 1521 1281ZM 1540.15 1031.99L 1996.15 961.988L 1995.85 960.012L 1539.85 1030.01L 1540.15 1031.99ZM 1995 961L 1995 1311L 1997 1311L 1997 961L 1995 961ZM 1996.11 1310.01L 1540.11 1260.01L 1539.89 1261.99L 1995.89 1311.99L 1996.11 1310.01ZM 1541 1261L 1541 1031L 1539 1031L 1539 1261L 1541 1261ZM 1560.15 1011.99L 2016.15 941.988L 2015.85 940.012L 1559.85 1010.01L 1560.15 1011.99ZM 2015 941L 2015 1291L 2017 1291L 2017 941L 2015 941ZM 2016.11 1290.01L 1560.11 1240.01L 1559.89 1241.99L 2015.89 1291.99L 2016.11 1290.01ZM 1561 1241L 1561 1011L 1559 1011L 1559 1241L 1561 1241ZM 1580.15 991.988L 2036.15 921.988L 2035.85 920.012L 1579.85 990.012L 1580.15 991.988ZM 2035 921L 2035 1271L 2037 1271L 2037 921L 2035 921ZM 2036.11 1270.01L 1580.11 1220.01L 1579.89 1221.99L 2035.89 1271.99L 2036.11 1270.01ZM 1581 1221L 1581 991L 1579 991L 1579 1221L 1581 1221ZM 1600.15 971.988L 2056.15 901.988L 2055.85 900.012L 1599.85 970.012L 1600.15 971.988ZM 2055 901L 2055 1251L 2057 1251L 2057 901L 2055 901ZM 2056.11 1250.01L 1600.11 1200.01L 1599.89 1201.99L 2055.89 1251.99L 2056.11 1250.01ZM 1601 1201L 1601 971L 1599 971L 1599 1201L 1601 1201ZM 1620.15 951.988L 2076.15 881.988L 2075.85 880.012L 1619.85 950.012L 1620.15 951.988ZM 2075 881L 2075 1231L 2077 1231L 2077 881L 2075 881ZM 2076.11 1230.01L 1620.11 1180.01L 1619.89 1181.99L 2075.89 1231.99L 2076.11 1230.01ZM 1621 1181L 1621 951L 1619 951L 1619 1181L 1621 1181ZM 1640.15 931.988L 2096.15 861.988L 2095.85 860.012L 1639.85 930.012L 1640.15 931.988ZM 2095 861L 2095 1211L 2097 1211L 2097 861L 2095 861ZM 2096.11 1210.01L 1640.11 1160.01L 1639.89 1161.99L 2095.89 1211.99L 2096.11 1210.01ZM 1641 1161L 1641 931L 1639 931L 1639 1161L 1641 1161ZM 2503.15 390.988L 2959.15 320.988L 2958.85 319.012L 2502.85 389.012L 2503.15 390.988ZM 2958 320L 2958 670L 2960 670L 2960 320L 2958 320ZM 2959.11 669.006L 2503.11 619.006L 2502.89 620.994L 2958.89 670.994L 2959.11 669.006ZM 2504 620L 2504 390L 2502 390L 2502 620L 2504 620ZM 2523.15 370.988L 2979.15 300.988L 2978.85 299.012L 2522.85 369.012L 2523.15 370.988ZM 2978 300L 2978 650L 2980 650L 2980 300L 2978 300ZM 2979.11 649.006L 2523.11 599.006L 2522.89 600.994L 2978.89 650.994L 2979.11 649.006ZM 2524 600L 2524 370L 2522 370L 2522 600L 2524 600ZM 2543.15 350.988L 2999.15 280.988L 2998.85 279.012L 2542.85 349.012L 2543.15 350.988ZM 2998 280L 2998 630L 3000 630L 3000 280L 2998 280ZM 2999.11 629.006L 2543.11 579.006L 2542.89 580.994L 2998.89 630.994L 2999.11 629.006ZM 2544 580L 2544 350L 2542 350L 2542 580L 2544 580ZM 2563.15 330.988L 3019.15 260.988L 3018.85 259.012L 2562.85 329.012L 2563.15 330.988ZM 3018 260L 3018 610L 3020 610L 3020 260L 3018 260ZM 3019.11 609.006L 2563.11 559.006L 2562.89 560.994L 3018.89 610.994L 3019.11 609.006ZM 2564 560L 2564 330L 2562 330L 2562 560L 2564 560ZM 2583.15 310.988L 3039.15 240.988L 3038.85 239.012L 2582.85 309.012L 2583.15 310.988ZM 3038 240L 3038 590L 3040 590L 3040 240L 3038 240ZM 3039.11 589.006L 2583.11 539.006L 2582.89 540.994L 3038.89 590.994L 3039.11 589.006ZM 2584 540L 2584 310L 2582 310L 2582 540L 2584 540ZM 2603.15 290.988L 3059.15 220.988L 3058.85 219.012L 2602.85 289.012L 2603.15 290.988ZM 3058 220L 3058 570L 3060 570L 3060 220L 3058 220ZM 3059.11 569.006L 2603.11 519.006L 2602.89 520.994L 3058.89 570.994L 3059.11 569.006ZM 2604 520L 2604 290L 2602 290L 2602 520L 2604 520ZM 2623.15 270.988L 3079.15 200.988L 3078.85 199.012L 2622.85 269.012L 2623.15 270.988ZM 3078 200L 3078 550L 3080 550L 3080 200L 3078 200ZM 3079.11 549.006L 2623.11 499.006L 2622.89 500.994L 3078.89 550.994L 3079.11 549.006ZM 2624 500L 2624 270L 2622 270L 2622 500L 2624 500ZM 2643.15 250.988L 3099.15 180.988L 3098.85 179.012L 2642.85 249.012L 2643.15 250.988ZM 3098 180L 3098 530L 3100 530L 3100 180L 3098 180ZM 3099.11 529.006L 2643.11 479.006L 2642.89 480.994L 3098.89 530.994L 3099.11 529.006ZM 2644 480L 2644 250L 2642 250L 2642 480L 2644 480ZM 2663.15 230.988L 3119.15 160.988L 3118.85 159.012L 2662.85 229.012L 2663.15 230.988ZM 3118 160L 3118 510L 3120 510L 3120 160L 3118 160ZM 3119.11 509.006L 2663.11 459.006L 2662.89 460.994L 3118.89 510.994L 3119.11 509.006ZM 2664 460L 2664 230L 2662 230L 2662 460L 2664 460ZM 2683.15 210.988L 3139.15 140.988L 3138.85 139.012L 2682.85 209.012L 2683.15 210.988ZM 3138 140L 3138 490L 3140 490L 3140 140L 3138 140ZM 3139.11 489.006L 2683.11 439.006L 2682.89 440.994L 3138.89 490.994L 3139.11 489.006ZM 2684 440L 2684 210L 2682 210L 2682 440L 2684 440ZM 2703.15 190.988L 3159.15 120.988L 3158.85 119.012L 2702.85 189.012L 2703.15 190.988ZM 3158 120L 3158 470L 3160 470L 3160 120L 3158 120ZM 3159.11 469.006L 2703.11 419.006L 2702.89 420.994L 3158.89 470.994L 3159.11 469.006ZM 2704 420L 2704 190L 2702 190L 2702 420L 2704 420ZM 2723.15 170.988L 3179.15 100.988L 3178.85 99.0116L 2722.85 169.012L 2723.15 170.988ZM 3178 100L 3178 450L 3180 450L 3180 100L 3178 100ZM 3179.11 449.006L 2723.11 399.006L 2722.89 400.994L 3178.89 450.994L 3179.11 449.006ZM 2724 400L 2724 170L 2722 170L 2722 400L 2724 400ZM 2743.15 150.988L 3199.15 80.9884L 3198.85 79.0116L 2742.85 149.012L 2743.15 150.988ZM 3198 80L 3198 430L 3200 430L 3200 80L 3198 80ZM 3199.11 429.006L 2743.11 379.006L 2742.89 380.994L 3198.89 430.994L 3199.11 429.006ZM 2744 380L 2744 150L 2742 150L 2742 380L 2744 380ZM 2763.15 130.988L 3219.15 60.9884L 3218.85 59.0116L 2762.85 129.012L 2763.15 130.988ZM 3218 60L 3218 410L 3220 410L 3220 60L 3218 60ZM 3219.11 409.006L 2763.11 359.006L 2762.89 360.994L 3218.89 410.994L 3219.11 409.006ZM 2764 360L 2764 130L 2762 130L 2762 360L 2764 360ZM 2783.15 110.988L 3239.15 40.9884L 3238.85 39.0116L 2782.85 109.012L 2783.15 110.988ZM 3238 40L 3238 390L 3240 390L 3240 40L 3238 40ZM 3239.11 389.006L 2783.11 339.006L 2782.89 340.994L 3238.89 390.994L 3239.11 389.006ZM 2784 340L 2784 110L 2782 110L 2782 340L 2784 340ZM 2803.15 90.9884L 3259.15 20.9884L 3258.85 19.0116L 2802.85 89.0116L 2803.15 90.9884ZM 3258 20L 3258 370L 3260 370L 3260 20L 3258 20ZM 3259.11 369.006L 2803.11 319.006L 2802.89 320.994L 3258.89 370.994L 3259.11 369.006ZM 2804 320L 2804 90L 2802 90L 2802 320L 2804 320ZM 2823.15 70.9884L 3279.15 0.988422L 3278.85 -0.988422L 2822.85 69.0116L 2823.15 70.9884ZM 3278 0L 3278 350L 3280 350L 3280 0L 3278 0ZM 3279.11 349.006L 2823.11 299.006L 2822.89 300.994L 3278.89 350.994L 3279.11 349.006ZM 2824 300L 2824 70L 2822 70L 2822 300L 2824 300Z"/>
</defs>
</svg>
