<?xml version="1.0" encoding="UTF-8" standalone="no"?>
<svg width="77px" height="32px" viewBox="0 0 77 32" version="1.1" xmlns="http://www.w3.org/2000/svg" xmlns:xlink="http://www.w3.org/1999/xlink">
    <!-- Generator: Sketch 47.1 (45422) - http://www.bohemiancoding.com/sketch -->
    <title>Group Copy</title>
    <desc>Created with Sketch.</desc>
    <defs></defs>
    <g id="Page-1" stroke="none" stroke-width="1" fill="none" fill-rule="evenodd">
        <g id="ui-kit" transform="translate(-298.000000, -92.000000)">
            <g id="Group-3" transform="translate(298.000000, 68.000000)">
                <g id="Group-Copy" transform="translate(0.000000, 24.000000)">
                    <path d="M2.38867188,8.78125 L7.6328125,21.3300781 L12.8964844,8.78125 L14.4980469,8.78125 L14.4980469,23 L13.296875,23 L13.296875,16.8085938 L13.3945312,10.4609375 L8.1015625,23 L7.17382812,23 L1.90039062,10.5097656 L1.99804688,16.7695312 L1.99804688,23 L0.796875,23 L0.796875,8.78125 L2.38867188,8.78125 Z M32.3652344,21.3105469 C31.9485656,21.9029978 31.2959029,22.3652327 30.4072266,22.6972656 C29.5185502,23.0292985 28.524094,23.1953125 27.4238281,23.1953125 C26.3105413,23.1953125 25.3209679,22.9283881 24.4550781,22.3945312 C23.5891884,21.8606744 22.9186222,21.1054736 22.4433594,20.1289062 C21.9680966,19.1523389 21.7272136,18.0325584 21.7207031,16.7695312 L21.7207031,14.9726562 C21.7207031,12.9999901 22.218745,11.4423885 23.2148438,10.2998047 C24.2109425,9.15722085 25.5488197,8.5859375 27.2285156,8.5859375 C28.6933667,8.5859375 29.8717403,8.95865513 30.7636719,9.70410156 C31.6556034,10.449548 32.1861971,11.476556 32.3554688,12.7851562 L31.1542969,12.7851562 C30.9785147,11.7434844 30.5537143,10.9541042 29.8798828,10.4169922 C29.2060513,9.87988013 28.3255263,9.61132812 27.2382812,9.61132812 C25.9101496,9.61132812 24.8587278,10.0833286 24.0839844,11.0273438 C23.3092409,11.9713589 22.921875,13.3027258 22.921875,15.0214844 L22.921875,16.7011719 C22.921875,17.7819064 23.1057924,18.7373005 23.4736328,19.5673828 C23.8414732,20.3974651 24.3688117,21.0403623 25.0556641,21.4960938 C25.7425165,21.9518252 26.5318966,22.1796875 27.4238281,22.1796875 C28.4589896,22.1796875 29.3476525,22.0169287 30.0898438,21.6914062 C30.571617,21.4765614 30.9296863,21.2259129 31.1640625,20.9394531 L31.1640625,17.2675781 L27.3457031,17.2675781 L27.3457031,16.2519531 L32.3652344,16.2519531 L32.3652344,21.3105469 Z M41.2382812,23 L40.0371094,23 L40.0371094,8.78125 L41.2382812,8.78125 L41.2382812,23 Z M59.6816406,23 L58.4804688,23 L50.3066406,10.8320312 L50.3066406,23 L49.0957031,23 L49.0957031,8.78125 L50.3066406,8.78125 L58.4902344,20.9589844 L58.4902344,8.78125 L59.6816406,8.78125 L59.6816406,23 Z M75.1464844,16.1835938 L68.4960938,16.1835938 L68.4960938,21.984375 L76.1425781,21.984375 L76.1425781,23 L67.2949219,23 L67.2949219,8.78125 L76.09375,8.78125 L76.09375,9.80664062 L68.4960938,9.80664062 L68.4960938,15.1679688 L75.1464844,15.1679688 L75.1464844,16.1835938 Z" id="mgine" fill="#00489D"></path>
                    <path d="M0.64,31.5 L31.3866551,31.5" id="Line" stroke="#00489D" stroke-linecap="square"></path>
                    <path d="M45.64,0.5 L76.3866551,0.5" id="Line-Copy" stroke="#00489D" stroke-linecap="square"></path>
                </g>
            </g>
        </g>
    </g>
</svg>