<svg width="699" height="446" viewBox="0 0 699 446" version="1.1" xmlns="http://www.w3.org/2000/svg" xmlns:xlink="http://www.w3.org/1999/xlink">
<title>Vector</title>
<desc>Created using Figma</desc>
<g id="Canvas" transform="translate(-448 -352)">
<g id="Vector" opacity="0.05">
<mask id="mask0_outline_ins">
<use xlink:href="#path0_fill" fill="white" transform="translate(371 152)"/>
<use xlink:href="#path1_fill" fill="white" transform="translate(371 152)"/>
<use xlink:href="#path2_fill" fill="white" transform="translate(371 152)"/>
<use xlink:href="#path3_fill" fill="white" transform="translate(371 152)"/>
<use xlink:href="#path4_fill" fill="white" transform="translate(371 152)"/>
<use xlink:href="#path5_fill" fill="white" transform="translate(371 152)"/>
<use xlink:href="#path6_fill" fill="white" transform="translate(371 152)"/>
<use xlink:href="#path7_fill" fill="white" transform="translate(371 152)"/>
<use xlink:href="#path8_fill" fill="white" transform="translate(371 152)"/>
<use xlink:href="#path9_fill" fill="white" transform="translate(371 152)"/>
<use xlink:href="#path10_fill" fill="white" transform="translate(371 152)"/>
<use xlink:href="#path11_fill" fill="white" transform="translate(371 152)"/>
<use xlink:href="#path12_fill" fill="white" transform="translate(371 152)"/>
<use xlink:href="#path13_fill" fill="white" transform="translate(371 152)"/>
<use xlink:href="#path14_fill" fill="white" transform="translate(371 152)"/>
<use xlink:href="#path15_fill" fill="white" transform="translate(371 152)"/>
<use xlink:href="#path16_fill" fill="white" transform="translate(371 152)"/>
</mask>
<g mask="url(#mask0_outline_ins)">
<use xlink:href="#path17_stroke_2x" transform="translate(371 152)" fill="#4A90E2"/>
</g>
</g>
</g>
<defs>
<path id="path0_fill" fill-rule="evenodd" d="M 776 390L 320 320L 320 670L 776 620L 776 390Z"/>
<path id="path1_fill" fill-rule="evenodd" d="M 756 370L 300 300L 300 650L 756 600L 756 370Z"/>
<path id="path2_fill" fill-rule="evenodd" d="M 736 350L 280 280L 280 630L 736 580L 736 350Z"/>
<path id="path3_fill" fill-rule="evenodd" d="M 716 330L 260 260L 260 610L 716 560L 716 330Z"/>
<path id="path4_fill" fill-rule="evenodd" d="M 696 310L 240 240L 240 590L 696 540L 696 310Z"/>
<path id="path5_fill" fill-rule="evenodd" d="M 676 290L 220 220L 220 570L 676 520L 676 290Z"/>
<path id="path6_fill" fill-rule="evenodd" d="M 656 270L 200 200L 200 550L 656 500L 656 270Z"/>
<path id="path7_fill" fill-rule="evenodd" d="M 636 250L 180 180L 180 530L 636 480L 636 250Z"/>
<path id="path8_fill" fill-rule="evenodd" d="M 616 230L 160 160L 160 510L 616 460L 616 230Z"/>
<path id="path9_fill" fill-rule="evenodd" d="M 596 210L 140 140L 140 490L 596 440L 596 210Z"/>
<path id="path10_fill" fill-rule="evenodd" d="M 576 190L 120 120L 120 470L 576 420L 576 190Z"/>
<path id="path11_fill" fill-rule="evenodd" d="M 556 170L 100 100L 100 450L 556 400L 556 170Z"/>
<path id="path12_fill" fill-rule="evenodd" d="M 536 150L 80 80L 80 430L 536 380L 536 150Z"/>
<path id="path13_fill" fill-rule="evenodd" d="M 516 130L 60 60L 60 410L 516 360L 516 130Z"/>
<path id="path14_fill" fill-rule="evenodd" d="M 496 110L 40 40L 40 390L 496 340L 496 110Z"/>
<path id="path15_fill" fill-rule="evenodd" d="M 476 90L 20 20L 20 370L 476 320L 476 90Z"/>
<path id="path16_fill" fill-rule="evenodd" d="M 456 70L 0 0L 0 350L 456 300L 456 70Z"/>
<path id="path17_stroke_2x" d="M 776 390L 777 390L 777 389.142L 776.152 389.012L 776 390ZM 320 320L 320.152 319.012L 319 318.835L 319 320L 320 320ZM 320 670L 319 670L 319 671.116L 320.109 670.994L 320 670ZM 776 620L 776.109 620.994L 777 620.896L 777 620L 776 620ZM 756 370L 757 370L 757 369.142L 756.152 369.012L 756 370ZM 300 300L 300.152 299.012L 299 298.835L 299 300L 300 300ZM 300 650L 299 650L 299 651.116L 300.109 650.994L 300 650ZM 756 600L 756.109 600.994L 757 600.896L 757 600L 756 600ZM 736 350L 737 350L 737 349.142L 736.152 349.012L 736 350ZM 280 280L 280.152 279.012L 279 278.835L 279 280L 280 280ZM 280 630L 279 630L 279 631.116L 280.109 630.994L 280 630ZM 736 580L 736.109 580.994L 737 580.896L 737 580L 736 580ZM 716 330L 717 330L 717 329.142L 716.152 329.012L 716 330ZM 260 260L 260.152 259.012L 259 258.835L 259 260L 260 260ZM 260 610L 259 610L 259 611.116L 260.109 610.994L 260 610ZM 716 560L 716.109 560.994L 717 560.896L 717 560L 716 560ZM 696 310L 697 310L 697 309.142L 696.152 309.012L 696 310ZM 240 240L 240.152 239.012L 239 238.835L 239 240L 240 240ZM 240 590L 239 590L 239 591.116L 240.109 590.994L 240 590ZM 696 540L 696.109 540.994L 697 540.896L 697 540L 696 540ZM 676 290L 677 290L 677 289.142L 676.152 289.012L 676 290ZM 220 220L 220.152 219.012L 219 218.835L 219 220L 220 220ZM 220 570L 219 570L 219 571.116L 220.109 570.994L 220 570ZM 676 520L 676.109 520.994L 677 520.896L 677 520L 676 520ZM 656 270L 657 270L 657 269.142L 656.152 269.012L 656 270ZM 200 200L 200.152 199.012L 199 198.835L 199 200L 200 200ZM 200 550L 199 550L 199 551.116L 200.109 550.994L 200 550ZM 656 500L 656.109 500.994L 657 500.896L 657 500L 656 500ZM 636 250L 637 250L 637 249.142L 636.152 249.012L 636 250ZM 180 180L 180.152 179.012L 179 178.835L 179 180L 180 180ZM 180 530L 179 530L 179 531.116L 180.109 530.994L 180 530ZM 636 480L 636.109 480.994L 637 480.896L 637 480L 636 480ZM 616 230L 617 230L 617 229.142L 616.152 229.012L 616 230ZM 160 160L 160.152 159.012L 159 158.835L 159 160L 160 160ZM 160 510L 159 510L 159 511.116L 160.109 510.994L 160 510ZM 616 460L 616.109 460.994L 617 460.896L 617 460L 616 460ZM 596 210L 597 210L 597 209.142L 596.152 209.012L 596 210ZM 140 140L 140.152 139.012L 139 138.835L 139 140L 140 140ZM 140 490L 139 490L 139 491.116L 140.109 490.994L 140 490ZM 596 440L 596.109 440.994L 597 440.896L 597 440L 596 440ZM 576 190L 577 190L 577 189.142L 576.152 189.012L 576 190ZM 120 120L 120.152 119.012L 119 118.835L 119 120L 120 120ZM 120 470L 119 470L 119 471.116L 120.109 470.994L 120 470ZM 576 420L 576.109 420.994L 577 420.896L 577 420L 576 420ZM 556 170L 557 170L 557 169.142L 556.152 169.012L 556 170ZM 100 100L 100.152 99.0116L 99 98.8348L 99 100L 100 100ZM 100 450L 99 450L 99 451.116L 100.109 450.994L 100 450ZM 556 400L 556.109 400.994L 557 400.896L 557 400L 556 400ZM 536 150L 537 150L 537 149.142L 536.152 149.012L 536 150ZM 80 80L 80.1517 79.0116L 79 78.8348L 79 80L 80 80ZM 80 430L 79 430L 79 431.116L 80.109 430.994L 80 430ZM 536 380L 536.109 380.994L 537 380.896L 537 380L 536 380ZM 516 130L 517 130L 517 129.142L 516.152 129.012L 516 130ZM 60 60L 60.1517 59.0116L 59 58.8348L 59 60L 60 60ZM 60 410L 59 410L 59 411.116L 60.109 410.994L 60 410ZM 516 360L 516.109 360.994L 517 360.896L 517 360L 516 360ZM 496 110L 497 110L 497 109.142L 496.152 109.012L 496 110ZM 40 40L 40.1517 39.0116L 39 38.8348L 39 40L 40 40ZM 40 390L 39 390L 39 391.116L 40.109 390.994L 40 390ZM 496 340L 496.109 340.994L 497 340.896L 497 340L 496 340ZM 476 90L 477 90L 477 89.1418L 476.152 89.0116L 476 90ZM 20 20L 20.1517 19.0116L 19 18.8348L 19 20L 20 20ZM 20 370L 19 370L 19 371.116L 20.109 370.994L 20 370ZM 476 320L 476.109 320.994L 477 320.896L 477 320L 476 320ZM 456 70L 457 70L 457 69.1418L 456.152 69.0116L 456 70ZM 0 0L 0.151731 -0.988422L -1 -1.16522L -1 0L 0 0ZM 0 350L -1 350L -1 351.116L 0.108996 350.994L 0 350ZM 456 300L 456.109 300.994L 457 300.896L 457 300L 456 300ZM 776.152 389.012L 320.152 319.012L 319.848 320.988L 775.848 390.988L 776.152 389.012ZM 319 320L 319 670L 321 670L 321 320L 319 320ZM 320.109 670.994L 776.109 620.994L 775.891 619.006L 319.891 669.006L 320.109 670.994ZM 777 620L 777 390L 775 390L 775 620L 777 620ZM 756.152 369.012L 300.152 299.012L 299.848 300.988L 755.848 370.988L 756.152 369.012ZM 299 300L 299 650L 301 650L 301 300L 299 300ZM 300.109 650.994L 756.109 600.994L 755.891 599.006L 299.891 649.006L 300.109 650.994ZM 757 600L 757 370L 755 370L 755 600L 757 600ZM 736.152 349.012L 280.152 279.012L 279.848 280.988L 735.848 350.988L 736.152 349.012ZM 279 280L 279 630L 281 630L 281 280L 279 280ZM 280.109 630.994L 736.109 580.994L 735.891 579.006L 279.891 629.006L 280.109 630.994ZM 737 580L 737 350L 735 350L 735 580L 737 580ZM 716.152 329.012L 260.152 259.012L 259.848 260.988L 715.848 330.988L 716.152 329.012ZM 259 260L 259 610L 261 610L 261 260L 259 260ZM 260.109 610.994L 716.109 560.994L 715.891 559.006L 259.891 609.006L 260.109 610.994ZM 717 560L 717 330L 715 330L 715 560L 717 560ZM 696.152 309.012L 240.152 239.012L 239.848 240.988L 695.848 310.988L 696.152 309.012ZM 239 240L 239 590L 241 590L 241 240L 239 240ZM 240.109 590.994L 696.109 540.994L 695.891 539.006L 239.891 589.006L 240.109 590.994ZM 697 540L 697 310L 695 310L 695 540L 697 540ZM 676.152 289.012L 220.152 219.012L 219.848 220.988L 675.848 290.988L 676.152 289.012ZM 219 220L 219 570L 221 570L 221 220L 219 220ZM 220.109 570.994L 676.109 520.994L 675.891 519.006L 219.891 569.006L 220.109 570.994ZM 677 520L 677 290L 675 290L 675 520L 677 520ZM 656.152 269.012L 200.152 199.012L 199.848 200.988L 655.848 270.988L 656.152 269.012ZM 199 200L 199 550L 201 550L 201 200L 199 200ZM 200.109 550.994L 656.109 500.994L 655.891 499.006L 199.891 549.006L 200.109 550.994ZM 657 500L 657 270L 655 270L 655 500L 657 500ZM 636.152 249.012L 180.152 179.012L 179.848 180.988L 635.848 250.988L 636.152 249.012ZM 179 180L 179 530L 181 530L 181 180L 179 180ZM 180.109 530.994L 636.109 480.994L 635.891 479.006L 179.891 529.006L 180.109 530.994ZM 637 480L 637 250L 635 250L 635 480L 637 480ZM 616.152 229.012L 160.152 159.012L 159.848 160.988L 615.848 230.988L 616.152 229.012ZM 159 160L 159 510L 161 510L 161 160L 159 160ZM 160.109 510.994L 616.109 460.994L 615.891 459.006L 159.891 509.006L 160.109 510.994ZM 617 460L 617 230L 615 230L 615 460L 617 460ZM 596.152 209.012L 140.152 139.012L 139.848 140.988L 595.848 210.988L 596.152 209.012ZM 139 140L 139 490L 141 490L 141 140L 139 140ZM 140.109 490.994L 596.109 440.994L 595.891 439.006L 139.891 489.006L 140.109 490.994ZM 597 440L 597 210L 595 210L 595 440L 597 440ZM 576.152 189.012L 120.152 119.012L 119.848 120.988L 575.848 190.988L 576.152 189.012ZM 119 120L 119 470L 121 470L 121 120L 119 120ZM 120.109 470.994L 576.109 420.994L 575.891 419.006L 119.891 469.006L 120.109 470.994ZM 577 420L 577 190L 575 190L 575 420L 577 420ZM 556.152 169.012L 100.152 99.0116L 99.8483 100.988L 555.848 170.988L 556.152 169.012ZM 99 100L 99 450L 101 450L 101 100L 99 100ZM 100.109 450.994L 556.109 400.994L 555.891 399.006L 99.891 449.006L 100.109 450.994ZM 557 400L 557 170L 555 170L 555 400L 557 400ZM 536.152 149.012L 80.1517 79.0116L 79.8483 80.9884L 535.848 150.988L 536.152 149.012ZM 79 80L 79 430L 81 430L 81 80L 79 80ZM 80.109 430.994L 536.109 380.994L 535.891 379.006L 79.891 429.006L 80.109 430.994ZM 537 380L 537 150L 535 150L 535 380L 537 380ZM 516.152 129.012L 60.1517 59.0116L 59.8483 60.9884L 515.848 130.988L 516.152 129.012ZM 59 60L 59 410L 61 410L 61 60L 59 60ZM 60.109 410.994L 516.109 360.994L 515.891 359.006L 59.891 409.006L 60.109 410.994ZM 517 360L 517 130L 515 130L 515 360L 517 360ZM 496.152 109.012L 40.1517 39.0116L 39.8483 40.9884L 495.848 110.988L 496.152 109.012ZM 39 40L 39 390L 41 390L 41 40L 39 40ZM 40.109 390.994L 496.109 340.994L 495.891 339.006L 39.891 389.006L 40.109 390.994ZM 497 340L 497 110L 495 110L 495 340L 497 340ZM 476.152 89.0116L 20.1517 19.0116L 19.8483 20.9884L 475.848 90.9884L 476.152 89.0116ZM 19 20L 19 370L 21 370L 21 20L 19 20ZM 20.109 370.994L 476.109 320.994L 475.891 319.006L 19.891 369.006L 20.109 370.994ZM 477 320L 477 90L 475 90L 475 320L 477 320ZM 456.152 69.0116L 0.151731 -0.988422L -0.151731 0.988422L 455.848 70.9884L 456.152 69.0116ZM -1 0L -1 350L 1 350L 1 0L -1 0ZM 0.108996 350.994L 456.109 300.994L 455.891 299.006L -0.108996 349.006L 0.108996 350.994ZM 457 300L 457 70L 455 70L 455 300L 457 300Z"/>
</defs>
</svg>

