<svg width="684" height="613" viewBox="0 0 684 613" version="1.1" xmlns="http://www.w3.org/2000/svg" xmlns:xlink="http://www.w3.org/1999/xlink">
<title>Vector</title>
<desc>Created using Figma</desc>
<g id="Canvas" transform="translate(-1204 -79)">
<g id="Vector" opacity="0.01">
<mask id="mask0_outline_ins">
<use xlink:href="#path0_fill" fill="white" transform="translate(1204 22)"/>
<use xlink:href="#path1_fill" fill="white" transform="translate(1204 22)"/>
<use xlink:href="#path2_fill" fill="white" transform="translate(1204 22)"/>
<use xlink:href="#path3_fill" fill="white" transform="translate(1204 22)"/>
<use xlink:href="#path4_fill" fill="white" transform="translate(1204 22)"/>
<use xlink:href="#path5_fill" fill="white" transform="translate(1204 22)"/>
<use xlink:href="#path6_fill" fill="white" transform="translate(1204 22)"/>
<use xlink:href="#path7_fill" fill="white" transform="translate(1204 22)"/>
<use xlink:href="#path8_fill" fill="white" transform="translate(1204 22)"/>
<use xlink:href="#path9_fill" fill="white" transform="translate(1204 22)"/>
<use xlink:href="#path10_fill" fill="white" transform="translate(1204 22)"/>
<use xlink:href="#path11_fill" fill="white" transform="translate(1204 22)"/>
<use xlink:href="#path12_fill" fill="white" transform="translate(1204 22)"/>
<use xlink:href="#path13_fill" fill="white" transform="translate(1204 22)"/>
<use xlink:href="#path14_fill" fill="white" transform="translate(1204 22)"/>
<use xlink:href="#path15_fill" fill="white" transform="translate(1204 22)"/>
<use xlink:href="#path16_fill" fill="white" transform="translate(1204 22)"/>
</mask>
<g mask="url(#mask0_outline_ins)">
<use xlink:href="#path17_stroke_2x" transform="translate(1204 22)" fill="#00489D"/>
</g>
</g>
</g>
<defs>
<path id="path0_fill" fill-rule="evenodd" d="M 0 390L 456 320L 456 670L 0 620L 0 390Z"/>
<path id="path1_fill" fill-rule="evenodd" d="M 20 370L 476 300L 476 650L 20 600L 20 370Z"/>
<path id="path2_fill" fill-rule="evenodd" d="M 40 350L 496 280L 496 630L 40 580L 40 350Z"/>
<path id="path3_fill" fill-rule="evenodd" d="M 60 330L 516 260L 516 610L 60 560L 60 330Z"/>
<path id="path4_fill" fill-rule="evenodd" d="M 80 310L 536 240L 536 590L 80 540L 80 310Z"/>
<path id="path5_fill" fill-rule="evenodd" d="M 100 290L 556 220L 556 570L 100 520L 100 290Z"/>
<path id="path6_fill" fill-rule="evenodd" d="M 120 270L 576 200L 576 550L 120 500L 120 270Z"/>
<path id="path7_fill" fill-rule="evenodd" d="M 140 250L 596 180L 596 530L 140 480L 140 250Z"/>
<path id="path8_fill" fill-rule="evenodd" d="M 160 230L 616 160L 616 510L 160 460L 160 230Z"/>
<path id="path9_fill" fill-rule="evenodd" d="M 180 210L 636 140L 636 490L 180 440L 180 210Z"/>
<path id="path10_fill" fill-rule="evenodd" d="M 200 190L 656 120L 656 470L 200 420L 200 190Z"/>
<path id="path11_fill" fill-rule="evenodd" d="M 220 170L 676 100L 676 450L 220 400L 220 170Z"/>
<path id="path12_fill" fill-rule="evenodd" d="M 240 150L 696 80L 696 430L 240 380L 240 150Z"/>
<path id="path13_fill" fill-rule="evenodd" d="M 260 130L 716 60L 716 410L 260 360L 260 130Z"/>
<path id="path14_fill" fill-rule="evenodd" d="M 280 110L 736 40L 736 390L 280 340L 280 110Z"/>
<path id="path15_fill" fill-rule="evenodd" d="M 300 90L 756 20L 756 370L 300 320L 300 90Z"/>
<path id="path16_fill" fill-rule="evenodd" d="M 320 70L 776 0L 776 350L 320 300L 320 70Z"/>
<path id="path17_stroke_2x" d="M 0 390L -0.151731 389.012L -1 389.142L -1 390L 0 390ZM 456 320L 457 320L 457 318.835L 455.848 319.012L 456 320ZM 456 670L 455.891 670.994L 457 671.116L 457 670L 456 670ZM 0 620L -1 620L -1 620.896L -0.108996 620.994L 0 620ZM 20 370L 19.8483 369.012L 19 369.142L 19 370L 20 370ZM 476 300L 477 300L 477 298.835L 475.848 299.012L 476 300ZM 476 650L 475.891 650.994L 477 651.116L 477 650L 476 650ZM 20 600L 19 600L 19 600.896L 19.891 600.994L 20 600ZM 40 350L 39.8483 349.012L 39 349.142L 39 350L 40 350ZM 496 280L 497 280L 497 278.835L 495.848 279.012L 496 280ZM 496 630L 495.891 630.994L 497 631.116L 497 630L 496 630ZM 40 580L 39 580L 39 580.896L 39.891 580.994L 40 580ZM 60 330L 59.8483 329.012L 59 329.142L 59 330L 60 330ZM 516 260L 517 260L 517 258.835L 515.848 259.012L 516 260ZM 516 610L 515.891 610.994L 517 611.116L 517 610L 516 610ZM 60 560L 59 560L 59 560.896L 59.891 560.994L 60 560ZM 80 310L 79.8483 309.012L 79 309.142L 79 310L 80 310ZM 536 240L 537 240L 537 238.835L 535.848 239.012L 536 240ZM 536 590L 535.891 590.994L 537 591.116L 537 590L 536 590ZM 80 540L 79 540L 79 540.896L 79.891 540.994L 80 540ZM 100 290L 99.8483 289.012L 99 289.142L 99 290L 100 290ZM 556 220L 557 220L 557 218.835L 555.848 219.012L 556 220ZM 556 570L 555.891 570.994L 557 571.116L 557 570L 556 570ZM 100 520L 99 520L 99 520.896L 99.891 520.994L 100 520ZM 120 270L 119.848 269.012L 119 269.142L 119 270L 120 270ZM 576 200L 577 200L 577 198.835L 575.848 199.012L 576 200ZM 576 550L 575.891 550.994L 577 551.116L 577 550L 576 550ZM 120 500L 119 500L 119 500.896L 119.891 500.994L 120 500ZM 140 250L 139.848 249.012L 139 249.142L 139 250L 140 250ZM 596 180L 597 180L 597 178.835L 595.848 179.012L 596 180ZM 596 530L 595.891 530.994L 597 531.116L 597 530L 596 530ZM 140 480L 139 480L 139 480.896L 139.891 480.994L 140 480ZM 160 230L 159.848 229.012L 159 229.142L 159 230L 160 230ZM 616 160L 617 160L 617 158.835L 615.848 159.012L 616 160ZM 616 510L 615.891 510.994L 617 511.116L 617 510L 616 510ZM 160 460L 159 460L 159 460.896L 159.891 460.994L 160 460ZM 180 210L 179.848 209.012L 179 209.142L 179 210L 180 210ZM 636 140L 637 140L 637 138.835L 635.848 139.012L 636 140ZM 636 490L 635.891 490.994L 637 491.116L 637 490L 636 490ZM 180 440L 179 440L 179 440.896L 179.891 440.994L 180 440ZM 200 190L 199.848 189.012L 199 189.142L 199 190L 200 190ZM 656 120L 657 120L 657 118.835L 655.848 119.012L 656 120ZM 656 470L 655.891 470.994L 657 471.116L 657 470L 656 470ZM 200 420L 199 420L 199 420.896L 199.891 420.994L 200 420ZM 220 170L 219.848 169.012L 219 169.142L 219 170L 220 170ZM 676 100L 677 100L 677 98.8348L 675.848 99.0116L 676 100ZM 676 450L 675.891 450.994L 677 451.116L 677 450L 676 450ZM 220 400L 219 400L 219 400.896L 219.891 400.994L 220 400ZM 240 150L 239.848 149.012L 239 149.142L 239 150L 240 150ZM 696 80L 697 80L 697 78.8348L 695.848 79.0116L 696 80ZM 696 430L 695.891 430.994L 697 431.116L 697 430L 696 430ZM 240 380L 239 380L 239 380.896L 239.891 380.994L 240 380ZM 260 130L 259.848 129.012L 259 129.142L 259 130L 260 130ZM 716 60L 717 60L 717 58.8348L 715.848 59.0116L 716 60ZM 716 410L 715.891 410.994L 717 411.116L 717 410L 716 410ZM 260 360L 259 360L 259 360.896L 259.891 360.994L 260 360ZM 280 110L 279.848 109.012L 279 109.142L 279 110L 280 110ZM 736 40L 737 40L 737 38.8348L 735.848 39.0116L 736 40ZM 736 390L 735.891 390.994L 737 391.116L 737 390L 736 390ZM 280 340L 279 340L 279 340.896L 279.891 340.994L 280 340ZM 300 90L 299.848 89.0116L 299 89.1418L 299 90L 300 90ZM 756 20L 757 20L 757 18.8348L 755.848 19.0116L 756 20ZM 756 370L 755.891 370.994L 757 371.116L 757 370L 756 370ZM 300 320L 299 320L 299 320.896L 299.891 320.994L 300 320ZM 320 70L 319.848 69.0116L 319 69.1418L 319 70L 320 70ZM 776 0L 777 0L 777 -1.16522L 775.848 -0.988422L 776 0ZM 776 350L 775.891 350.994L 777 351.116L 777 350L 776 350ZM 320 300L 319 300L 319 300.896L 319.891 300.994L 320 300ZM 0.151731 390.988L 456.152 320.988L 455.848 319.012L -0.151731 389.012L 0.151731 390.988ZM 455 320L 455 670L 457 670L 457 320L 455 320ZM 456.109 669.006L 0.108996 619.006L -0.108996 620.994L 455.891 670.994L 456.109 669.006ZM 1 620L 1 390L -1 390L -1 620L 1 620ZM 20.1517 370.988L 476.152 300.988L 475.848 299.012L 19.8483 369.012L 20.1517 370.988ZM 475 300L 475 650L 477 650L 477 300L 475 300ZM 476.109 649.006L 20.109 599.006L 19.891 600.994L 475.891 650.994L 476.109 649.006ZM 21 600L 21 370L 19 370L 19 600L 21 600ZM 40.1517 350.988L 496.152 280.988L 495.848 279.012L 39.8483 349.012L 40.1517 350.988ZM 495 280L 495 630L 497 630L 497 280L 495 280ZM 496.109 629.006L 40.109 579.006L 39.891 580.994L 495.891 630.994L 496.109 629.006ZM 41 580L 41 350L 39 350L 39 580L 41 580ZM 60.1517 330.988L 516.152 260.988L 515.848 259.012L 59.8483 329.012L 60.1517 330.988ZM 515 260L 515 610L 517 610L 517 260L 515 260ZM 516.109 609.006L 60.109 559.006L 59.891 560.994L 515.891 610.994L 516.109 609.006ZM 61 560L 61 330L 59 330L 59 560L 61 560ZM 80.1517 310.988L 536.152 240.988L 535.848 239.012L 79.8483 309.012L 80.1517 310.988ZM 535 240L 535 590L 537 590L 537 240L 535 240ZM 536.109 589.006L 80.109 539.006L 79.891 540.994L 535.891 590.994L 536.109 589.006ZM 81 540L 81 310L 79 310L 79 540L 81 540ZM 100.152 290.988L 556.152 220.988L 555.848 219.012L 99.8483 289.012L 100.152 290.988ZM 555 220L 555 570L 557 570L 557 220L 555 220ZM 556.109 569.006L 100.109 519.006L 99.891 520.994L 555.891 570.994L 556.109 569.006ZM 101 520L 101 290L 99 290L 99 520L 101 520ZM 120.152 270.988L 576.152 200.988L 575.848 199.012L 119.848 269.012L 120.152 270.988ZM 575 200L 575 550L 577 550L 577 200L 575 200ZM 576.109 549.006L 120.109 499.006L 119.891 500.994L 575.891 550.994L 576.109 549.006ZM 121 500L 121 270L 119 270L 119 500L 121 500ZM 140.152 250.988L 596.152 180.988L 595.848 179.012L 139.848 249.012L 140.152 250.988ZM 595 180L 595 530L 597 530L 597 180L 595 180ZM 596.109 529.006L 140.109 479.006L 139.891 480.994L 595.891 530.994L 596.109 529.006ZM 141 480L 141 250L 139 250L 139 480L 141 480ZM 160.152 230.988L 616.152 160.988L 615.848 159.012L 159.848 229.012L 160.152 230.988ZM 615 160L 615 510L 617 510L 617 160L 615 160ZM 616.109 509.006L 160.109 459.006L 159.891 460.994L 615.891 510.994L 616.109 509.006ZM 161 460L 161 230L 159 230L 159 460L 161 460ZM 180.152 210.988L 636.152 140.988L 635.848 139.012L 179.848 209.012L 180.152 210.988ZM 635 140L 635 490L 637 490L 637 140L 635 140ZM 636.109 489.006L 180.109 439.006L 179.891 440.994L 635.891 490.994L 636.109 489.006ZM 181 440L 181 210L 179 210L 179 440L 181 440ZM 200.152 190.988L 656.152 120.988L 655.848 119.012L 199.848 189.012L 200.152 190.988ZM 655 120L 655 470L 657 470L 657 120L 655 120ZM 656.109 469.006L 200.109 419.006L 199.891 420.994L 655.891 470.994L 656.109 469.006ZM 201 420L 201 190L 199 190L 199 420L 201 420ZM 220.152 170.988L 676.152 100.988L 675.848 99.0116L 219.848 169.012L 220.152 170.988ZM 675 100L 675 450L 677 450L 677 100L 675 100ZM 676.109 449.006L 220.109 399.006L 219.891 400.994L 675.891 450.994L 676.109 449.006ZM 221 400L 221 170L 219 170L 219 400L 221 400ZM 240.152 150.988L 696.152 80.9884L 695.848 79.0116L 239.848 149.012L 240.152 150.988ZM 695 80L 695 430L 697 430L 697 80L 695 80ZM 696.109 429.006L 240.109 379.006L 239.891 380.994L 695.891 430.994L 696.109 429.006ZM 241 380L 241 150L 239 150L 239 380L 241 380ZM 260.152 130.988L 716.152 60.9884L 715.848 59.0116L 259.848 129.012L 260.152 130.988ZM 715 60L 715 410L 717 410L 717 60L 715 60ZM 716.109 409.006L 260.109 359.006L 259.891 360.994L 715.891 410.994L 716.109 409.006ZM 261 360L 261 130L 259 130L 259 360L 261 360ZM 280.152 110.988L 736.152 40.9884L 735.848 39.0116L 279.848 109.012L 280.152 110.988ZM 735 40L 735 390L 737 390L 737 40L 735 40ZM 736.109 389.006L 280.109 339.006L 279.891 340.994L 735.891 390.994L 736.109 389.006ZM 281 340L 281 110L 279 110L 279 340L 281 340ZM 300.152 90.9884L 756.152 20.9884L 755.848 19.0116L 299.848 89.0116L 300.152 90.9884ZM 755 20L 755 370L 757 370L 757 20L 755 20ZM 756.109 369.006L 300.109 319.006L 299.891 320.994L 755.891 370.994L 756.109 369.006ZM 301 320L 301 90L 299 90L 299 320L 301 320ZM 320.152 70.9884L 776.152 0.988422L 775.848 -0.988422L 319.848 69.0116L 320.152 70.9884ZM 775 0L 775 350L 777 350L 777 0L 775 0ZM 776.109 349.006L 320.109 299.006L 319.891 300.994L 775.891 350.994L 776.109 349.006ZM 321 300L 321 70L 319 70L 319 300L 321 300Z"/>
</defs>
</svg>
